<svg width="96" height="161" viewBox="0 0 96 161" fill="none" xmlns="http://www.w3.org/2000/svg">
<path d="M96 129L96 28.5001C96 22.9772 91.5229 18.5001 86 18.5001L81.5 18.5001C79.8432 18.5001 78.5199 17.1479 78.3702 15.4979C77.6114 7.13472 73.6453 3.62492 69.5897 1.46071C68.2404 0.740674 66.6312 1.89612 66.4073 3.40901C65.6629 8.43818 62.4167 13.0617 59.5771 16.0787C58.0072 17.7466 55.7503 18.5001 53.4597 18.5001L10 18.5001C4.47716 18.5001 1.0143e-05 22.9772 9.66021e-06 28.5001L8.74228e-07 129C3.91406e-07 134.523 4.47716 139 10 139L86 139C91.5228 139 96 134.523 96 129Z" fill="white"/>
<rect x="28" y="109" width="43" height="10" rx="3" fill="#FF765A"/>
<rect x="15" y="74" width="50" height="9" rx="3" fill="#00B4C2"/>
<path d="M14.95 40C14.6967 40 14.4633 39.9367 14.25 39.81C14.0433 39.6833 13.8767 39.5167 13.75 39.31C13.6233 39.0967 13.56 38.8633 13.56 38.61V34.19C13.56 33.9367 13.6233 33.7067 13.75 33.5C13.8767 33.2867 14.0433 33.1167 14.25 32.99C14.4633 32.8633 14.6967 32.8 14.95 32.8H20.74V34.13H15.23C15.1233 34.13 15.0367 34.16 14.97 34.22C14.91 34.28 14.88 34.3667 14.88 34.48V38.32C14.88 38.4267 14.91 38.5133 14.97 38.58C15.0367 38.64 15.1233 38.67 15.23 38.67H20.74V40H14.95ZM23.1127 40C22.8593 40 22.6293 39.9367 22.4227 39.81C22.216 39.6833 22.0493 39.5167 21.9227 39.31C21.796 39.1033 21.7327 38.8733 21.7327 38.62V35.58C21.7327 35.3267 21.796 35.0967 21.9227 34.89C22.0493 34.6833 22.216 34.5167 22.4227 34.39C22.6293 34.2633 22.8593 34.2 23.1127 34.2H26.2427C26.496 34.2 26.726 34.2633 26.9327 34.39C27.146 34.5167 27.3127 34.6833 27.4327 34.89C27.5593 35.0967 27.6227 35.3267 27.6227 35.58V38.62C27.6227 38.8733 27.5593 39.1033 27.4327 39.31C27.3127 39.5167 27.1493 39.6833 26.9427 39.81C26.736 39.9367 26.5027 40 26.2427 40H23.1127ZM23.1627 38.69H26.1927C26.226 38.69 26.2527 38.68 26.2727 38.66C26.2993 38.6333 26.3127 38.6033 26.3127 38.57V35.63C26.3127 35.5967 26.2993 35.57 26.2727 35.55C26.2527 35.5233 26.226 35.51 26.1927 35.51H23.1627C23.1293 35.51 23.0993 35.5233 23.0727 35.55C23.0527 35.57 23.0427 35.5967 23.0427 35.63V38.57C23.0427 38.6033 23.0527 38.6333 23.0727 38.66C23.0993 38.68 23.1293 38.69 23.1627 38.69ZM28.6865 40V34.2H35.8765C36.1365 34.2 36.3698 34.2633 36.5765 34.39C36.7832 34.5167 36.9465 34.6833 37.0665 34.89C37.1932 35.0967 37.2565 35.3267 37.2565 35.58V40H35.9565V35.63C35.9565 35.5967 35.9432 35.57 35.9165 35.55C35.8898 35.5233 35.8598 35.51 35.8265 35.51H33.7565C33.7232 35.51 33.6932 35.5233 33.6665 35.55C33.6465 35.57 33.6365 35.5967 33.6365 35.63V40H32.3165V35.63C32.3165 35.5967 32.3032 35.57 32.2765 35.55C32.2565 35.5233 32.2298 35.51 32.1965 35.51H30.1165C30.0832 35.51 30.0532 35.5233 30.0265 35.55C30.0065 35.57 29.9965 35.5967 29.9965 35.63V40H28.6865ZM38.0713 42.3V34.2H42.5812C42.8346 34.2 43.0646 34.2633 43.2713 34.39C43.4846 34.5167 43.6513 34.6833 43.7713 34.89C43.8979 35.0967 43.9613 35.3267 43.9613 35.58V38.62C43.9613 38.8733 43.8979 39.1033 43.7713 39.31C43.6513 39.5167 43.4846 39.6833 43.2713 39.81C43.0646 39.9367 42.8346 40 42.5812 40H39.3813V42.3H38.0713ZM39.5013 38.69H42.5312C42.5646 38.69 42.5913 38.68 42.6113 38.66C42.6379 38.6333 42.6513 38.6033 42.6513 38.57V35.63C42.6513 35.5967 42.6379 35.57 42.6113 35.55C42.5913 35.5233 42.5646 35.51 42.5312 35.51H39.5013C39.4679 35.51 39.4379 35.5233 39.4113 35.55C39.3913 35.57 39.3813 35.5967 39.3813 35.63V38.57C39.3813 38.6033 39.3913 38.6333 39.4113 38.66C39.4379 38.68 39.4679 38.69 39.5013 38.69ZM46.0719 40C45.8185 40 45.5852 39.9367 45.3719 39.81C45.1652 39.6833 44.9985 39.5167 44.8719 39.31C44.7519 39.1033 44.6919 38.8733 44.6919 38.62V36.44H49.2719V35.63C49.2719 35.5967 49.2585 35.57 49.2319 35.55C49.2119 35.5233 49.1852 35.51 49.1519 35.51H44.6919V34.2H49.2019C49.4552 34.2 49.6852 34.2633 49.8919 34.39C50.1052 34.5167 50.2719 34.6833 50.3919 34.89C50.5185 35.0967 50.5819 35.3267 50.5819 35.58V40H46.0719ZM46.1219 38.69H49.2719V37.62H46.0019V38.57C46.0019 38.6033 46.0119 38.6333 46.0319 38.66C46.0585 38.68 46.0885 38.69 46.1219 38.69ZM51.5478 40V34.2H56.0578C56.3111 34.2 56.5411 34.2633 56.7478 34.39C56.9611 34.5167 57.1278 34.6833 57.2478 34.89C57.3745 35.0967 57.4378 35.3267 57.4378 35.58V40H56.1278V35.63C56.1278 35.5967 56.1145 35.57 56.0878 35.55C56.0678 35.5233 56.0411 35.51 56.0078 35.51H52.9778C52.9445 35.51 52.9145 35.5233 52.8878 35.55C52.8678 35.57 52.8578 35.5967 52.8578 35.63V40H51.5478ZM58.4907 40V34.2H59.8007V40H58.4907ZM58.4907 33.62V32.3H59.8007V33.62H58.4907ZM62.0775 40C61.8242 40 61.5942 39.9367 61.3875 39.81C61.1808 39.6833 61.0142 39.5167 60.8875 39.31C60.7608 39.1033 60.6975 38.8733 60.6975 38.62V35.58C60.6975 35.3267 60.7608 35.0967 60.8875 34.89C61.0142 34.6833 61.1808 34.5167 61.3875 34.39C61.5942 34.2633 61.8242 34.2 62.0775 34.2H65.2075C65.4608 34.2 65.6908 34.2633 65.8975 34.39C66.1108 34.5167 66.2775 34.6833 66.3975 34.89C66.5242 35.0967 66.5875 35.3267 66.5875 35.58V38.62C66.5875 38.8733 66.5242 39.1033 66.3975 39.31C66.2775 39.5167 66.1142 39.6833 65.9075 39.81C65.7008 39.9367 65.4675 40 65.2075 40H62.0775ZM62.1275 38.69H65.1575C65.1908 38.69 65.2175 38.68 65.2375 38.66C65.2642 38.6333 65.2775 38.6033 65.2775 38.57V35.63C65.2775 35.5967 65.2642 35.57 65.2375 35.55C65.2175 35.5233 65.1908 35.51 65.1575 35.51H62.1275C62.0942 35.51 62.0642 35.5233 62.0375 35.55C62.0175 35.57 62.0075 35.5967 62.0075 35.63V38.57C62.0075 38.6033 62.0175 38.6333 62.0375 38.66C62.0642 38.68 62.0942 38.69 62.1275 38.69ZM67.4072 40V34.2H71.9172C72.1705 34.2 72.4005 34.2633 72.6072 34.39C72.8205 34.5167 72.9872 34.6833 73.1072 34.89C73.2339 35.0967 73.2972 35.3267 73.2972 35.58V40H71.9872V35.63C71.9872 35.5967 71.9739 35.57 71.9472 35.55C71.9272 35.5233 71.9005 35.51 71.8672 35.51H68.8372C68.8039 35.51 68.7739 35.5233 68.7472 35.55C68.7272 35.57 68.7172 35.5967 68.7172 35.63V40H67.4072ZM13.59 53V45.8H19.11C19.3633 45.8 19.5933 45.8633 19.8 45.99C20.0133 46.1167 20.1833 46.2867 20.31 46.5C20.4367 46.7067 20.5 46.9367 20.5 47.19V48.6C20.5 48.6867 20.4933 48.77 20.48 48.85C20.4667 48.93 20.4433 49.0067 20.41 49.08C20.5233 49.2333 20.6133 49.3933 20.68 49.56C20.7533 49.7267 20.79 49.8933 20.79 50.06V51.61C20.79 51.8633 20.7267 52.0967 20.6 52.31C20.4733 52.5167 20.3033 52.6833 20.09 52.81C19.8767 52.9367 19.6433 53 19.39 53H13.59ZM15.03 51.67H19.33C19.3633 51.67 19.3933 51.66 19.42 51.64C19.4467 51.6133 19.46 51.5833 19.46 51.55V50.12C19.46 50.0867 19.4467 50.06 19.42 50.04C19.3933 50.0133 19.3633 50 19.33 50H15.03C14.9967 50 14.9667 50.0133 14.94 50.04C14.92 50.06 14.91 50.0867 14.91 50.12V51.55C14.91 51.5833 14.92 51.6133 14.94 51.64C14.9667 51.66 14.9967 51.67 15.03 51.67ZM15.03 48.67H19.05C19.0833 48.67 19.11 48.66 19.13 48.64C19.15 48.6133 19.16 48.5833 19.16 48.55V47.25C19.16 47.2167 19.15 47.19 19.13 47.17C19.11 47.1433 19.0833 47.13 19.05 47.13H15.03C14.9967 47.13 14.9667 47.1433 14.94 47.17C14.92 47.19 14.91 47.2167 14.91 47.25V48.55C14.91 48.5833 14.92 48.6133 14.94 48.64C14.9667 48.66 14.9967 48.67 15.03 48.67ZM23.2103 53C22.957 53 22.727 52.9367 22.5203 52.81C22.3136 52.6833 22.147 52.5167 22.0203 52.31C21.8936 52.1033 21.8303 51.8733 21.8303 51.62V48.58C21.8303 48.3267 21.8936 48.0967 22.0203 47.89C22.147 47.6833 22.3136 47.5167 22.5203 47.39C22.727 47.2633 22.957 47.2 23.2103 47.2H26.3403C26.5936 47.2 26.8236 47.2633 27.0303 47.39C27.2436 47.5167 27.4103 47.6833 27.5303 47.89C27.657 48.0967 27.7203 48.3267 27.7203 48.58V51.62C27.7203 51.8733 27.657 52.1033 27.5303 52.31C27.4103 52.5167 27.247 52.6833 27.0403 52.81C26.8336 52.9367 26.6003 53 26.3403 53H23.2103ZM23.2603 51.69H26.2903C26.3236 51.69 26.3503 51.68 26.3703 51.66C26.397 51.6333 26.4103 51.6033 26.4103 51.57V48.63C26.4103 48.5967 26.397 48.57 26.3703 48.55C26.3503 48.5233 26.3236 48.51 26.2903 48.51H23.2603C23.227 48.51 23.197 48.5233 23.1703 48.55C23.1503 48.57 23.1403 48.5967 23.1403 48.63V51.57C23.1403 51.6033 23.1503 51.6333 23.1703 51.66C23.197 51.68 23.227 51.69 23.2603 51.69ZM29.9588 53C29.7055 53 29.4755 52.9367 29.2688 52.81C29.0622 52.6833 28.8955 52.5167 28.7688 52.31C28.6422 52.1033 28.5788 51.8733 28.5788 51.62V45.42H29.8888V47.2H32.1488V48.51H29.8888V51.57C29.8888 51.6033 29.8988 51.6333 29.9188 51.66C29.9455 51.68 29.9755 51.69 30.0088 51.69H32.1488V53H29.9588Z" fill="#090136"/>
<path d="M21.542 63.1209V63.6389H20.212V67.9999H19.575V63.6389H18.238V63.1209H21.542ZM22.0881 66.0679C22.0881 65.6759 22.1674 65.3329 22.3261 65.0389C22.4848 64.7402 22.7018 64.5092 22.9771 64.3459C23.2571 64.1825 23.5674 64.1009 23.9081 64.1009C24.2441 64.1009 24.5358 64.1732 24.7831 64.3179C25.0304 64.4625 25.2148 64.6445 25.3361 64.8639V64.1639H25.9801V67.9999H25.3361V67.2859C25.2101 67.5099 25.0211 67.6965 24.7691 67.8459C24.5218 67.9905 24.2324 68.0629 23.9011 68.0629C23.5604 68.0629 23.2524 67.9789 22.9771 67.8109C22.7018 67.6429 22.4848 67.4072 22.3261 67.1039C22.1674 66.8005 22.0881 66.4552 22.0881 66.0679ZM25.3361 66.0749C25.3361 65.7855 25.2778 65.5335 25.1611 65.3189C25.0444 65.1042 24.8858 64.9409 24.6851 64.8289C24.4891 64.7122 24.2721 64.6539 24.0341 64.6539C23.7961 64.6539 23.5791 64.7099 23.3831 64.8219C23.1871 64.9339 23.0308 65.0972 22.9141 65.3119C22.7974 65.5265 22.7391 65.7785 22.7391 66.0679C22.7391 66.3619 22.7974 66.6185 22.9141 66.8379C23.0308 67.0525 23.1871 67.2182 23.3831 67.3349C23.5791 67.4469 23.7961 67.5029 24.0341 67.5029C24.2721 67.5029 24.4891 67.4469 24.6851 67.3349C24.8858 67.2182 25.0444 67.0525 25.1611 66.8379C25.2778 66.6185 25.3361 66.3642 25.3361 66.0749ZM27.6936 62.8199V67.9999H27.0566V62.8199H27.6936ZM30.9212 67.9999L29.4162 66.3059V67.9999H28.7792V62.8199H29.4162V65.8649L30.8932 64.1639H31.7822L29.9762 66.0749L31.7892 67.9999H30.9212ZM39.358 64.1639L38.161 67.9999H37.503L36.579 64.9549L35.655 67.9999H34.997L33.793 64.1639H34.444L35.326 67.3839L36.278 64.1639H36.929L37.86 67.3909L38.728 64.1639H39.358ZM40.3192 63.5409C40.1978 63.5409 40.0952 63.4989 40.0112 63.4149C39.9272 63.3309 39.8852 63.2282 39.8852 63.1069C39.8852 62.9855 39.9272 62.8829 40.0112 62.7989C40.0952 62.7149 40.1978 62.6729 40.3192 62.6729C40.4358 62.6729 40.5338 62.7149 40.6132 62.7989C40.6972 62.8829 40.7392 62.9855 40.7392 63.1069C40.7392 63.2282 40.6972 63.3309 40.6132 63.4149C40.5338 63.4989 40.4358 63.5409 40.3192 63.5409ZM40.6272 64.1639V67.9999H39.9902V64.1639H40.6272ZM42.4898 64.6889V66.9499C42.4898 67.1365 42.5295 67.2695 42.6088 67.3489C42.6882 67.4235 42.8258 67.4609 43.0218 67.4609H43.4908V67.9999H42.9168C42.5622 67.9999 42.2962 67.9182 42.1188 67.7549C41.9415 67.5915 41.8528 67.3232 41.8528 66.9499V64.6889H41.3558V64.1639H41.8528V63.1979H42.4898V64.1639H43.4908V64.6889H42.4898ZM46.1666 64.0939C46.456 64.0939 46.7173 64.1569 46.9506 64.2829C47.184 64.4042 47.366 64.5885 47.4966 64.8359C47.632 65.0832 47.6996 65.3842 47.6996 65.7389V67.9999H47.0696V65.8299C47.0696 65.4472 46.974 65.1555 46.7826 64.9549C46.5913 64.7495 46.33 64.6469 45.9986 64.6469C45.6626 64.6469 45.3943 64.7519 45.1936 64.9619C44.9976 65.1719 44.8996 65.4775 44.8996 65.8789V67.9999H44.2626V62.8199H44.8996V64.7099C45.0256 64.5139 45.1983 64.3622 45.4176 64.2549C45.6416 64.1475 45.8913 64.0939 46.1666 64.0939ZM51.3834 64.6889V66.9499C51.3834 67.1365 51.423 67.2695 51.5024 67.3489C51.5817 67.4235 51.7194 67.4609 51.9154 67.4609H52.3844V67.9999H51.8104C51.4557 67.9999 51.1897 67.9182 51.0124 67.7549C50.835 67.5915 50.7464 67.3232 50.7464 66.9499V64.6889H50.2494V64.1639H50.7464V63.1979H51.3834V64.1639H52.3844V64.6889H51.3834ZM55.0602 64.0939C55.3495 64.0939 55.6109 64.1569 55.8442 64.2829C56.0775 64.4042 56.2595 64.5885 56.3902 64.8359C56.5255 65.0832 56.5932 65.3842 56.5932 65.7389V67.9999H55.9632V65.8299C55.9632 65.4472 55.8675 65.1555 55.6762 64.9549C55.4849 64.7495 55.2235 64.6469 54.8922 64.6469C54.5562 64.6469 54.2879 64.7519 54.0872 64.9619C53.8912 65.1719 53.7932 65.4775 53.7932 65.8789V67.9999H53.1562V62.8199H53.7932V64.7099C53.9192 64.5139 54.0919 64.3622 54.3112 64.2549C54.5352 64.1475 54.7849 64.0939 55.0602 64.0939ZM61.1337 65.9349C61.1337 66.0562 61.1267 66.1845 61.1127 66.3199H58.0467C58.0701 66.6979 58.1984 66.9942 58.4317 67.2089C58.6697 67.4189 58.9567 67.5239 59.2927 67.5239C59.5681 67.5239 59.7967 67.4609 59.9787 67.3349C60.1654 67.2042 60.2961 67.0315 60.3707 66.8169H61.0567C60.9541 67.1855 60.7487 67.4865 60.4407 67.7199C60.1327 67.9485 59.7501 68.0629 59.2927 68.0629C58.9287 68.0629 58.6021 67.9812 58.3127 67.8179C58.0281 67.6545 57.8041 67.4235 57.6407 67.1249C57.4774 66.8215 57.3957 66.4715 57.3957 66.0749C57.3957 65.6782 57.4751 65.3305 57.6337 65.0319C57.7924 64.7332 58.0141 64.5045 58.2987 64.3459C58.5881 64.1825 58.9194 64.1009 59.2927 64.1009C59.6567 64.1009 59.9787 64.1802 60.2587 64.3389C60.5387 64.4975 60.7534 64.7169 60.9027 64.9969C61.0567 65.2722 61.1337 65.5849 61.1337 65.9349ZM60.4757 65.8019C60.4757 65.5592 60.4221 65.3515 60.3147 65.1789C60.2074 65.0015 60.0604 64.8685 59.8737 64.7799C59.6917 64.6865 59.4887 64.6399 59.2647 64.6399C58.9427 64.6399 58.6674 64.7425 58.4387 64.9479C58.2147 65.1532 58.0864 65.4379 58.0537 65.8019H60.4757ZM18.301 90.0679C18.301 89.6759 18.3803 89.3329 18.539 89.0389C18.6977 88.7402 18.9147 88.5092 19.19 88.3459C19.47 88.1825 19.7803 88.1009 20.121 88.1009C20.457 88.1009 20.7487 88.1732 20.996 88.3179C21.2433 88.4625 21.4277 88.6445 21.549 88.8639V88.1639H22.193V91.9999H21.549V91.2859C21.423 91.5099 21.234 91.6965 20.982 91.8459C20.7347 91.9905 20.4453 92.0629 20.114 92.0629C19.7733 92.0629 19.4653 91.9789 19.19 91.8109C18.9147 91.6429 18.6977 91.4072 18.539 91.1039C18.3803 90.8005 18.301 90.4552 18.301 90.0679ZM21.549 90.0749C21.549 89.7855 21.4907 89.5335 21.374 89.3189C21.2573 89.1042 21.0987 88.9409 20.898 88.8289C20.702 88.7122 20.485 88.6539 20.247 88.6539C20.009 88.6539 19.792 88.7099 19.596 88.8219C19.4 88.9339 19.2437 89.0972 19.127 89.3119C19.0103 89.5265 18.952 89.7785 18.952 90.0679C18.952 90.3619 19.0103 90.6185 19.127 90.8379C19.2437 91.0525 19.4 91.2182 19.596 91.3349C19.792 91.4469 20.009 91.5029 20.247 91.5029C20.485 91.5029 20.702 91.4469 20.898 91.3349C21.0987 91.2182 21.2573 91.0525 21.374 90.8379C21.4907 90.6185 21.549 90.3642 21.549 90.0749ZM24.6275 92.0629C24.3335 92.0629 24.0698 92.0139 23.8365 91.9159C23.6031 91.8132 23.4188 91.6732 23.2835 91.4959C23.1481 91.3139 23.0735 91.1062 23.0595 90.8729H23.7175C23.7361 91.0642 23.8248 91.2205 23.9835 91.3419C24.1468 91.4632 24.3591 91.5239 24.6205 91.5239C24.8631 91.5239 25.0545 91.4702 25.1945 91.3629C25.3345 91.2555 25.4045 91.1202 25.4045 90.9569C25.4045 90.7889 25.3298 90.6652 25.1805 90.5859C25.0311 90.5019 24.8001 90.4202 24.4875 90.3409C24.2028 90.2662 23.9695 90.1915 23.7875 90.1169C23.6101 90.0375 23.4561 89.9232 23.3255 89.7739C23.1995 89.6199 23.1365 89.4192 23.1365 89.1719C23.1365 88.9759 23.1948 88.7962 23.3115 88.6329C23.4281 88.4695 23.5938 88.3412 23.8085 88.2479C24.0231 88.1499 24.2681 88.1009 24.5435 88.1009C24.9681 88.1009 25.3111 88.2082 25.5725 88.4229C25.8338 88.6375 25.9738 88.9315 25.9925 89.3049H25.3555C25.3415 89.1042 25.2598 88.9432 25.1105 88.8219C24.9658 88.7005 24.7698 88.6399 24.5225 88.6399C24.2938 88.6399 24.1118 88.6889 23.9765 88.7869C23.8411 88.8849 23.7735 89.0132 23.7735 89.1719C23.7735 89.2979 23.8131 89.4029 23.8925 89.4869C23.9765 89.5662 24.0791 89.6315 24.2005 89.6829C24.3265 89.7295 24.4991 89.7832 24.7185 89.8439C24.9938 89.9185 25.2178 89.9932 25.3905 90.0679C25.5631 90.1379 25.7101 90.2452 25.8315 90.3899C25.9575 90.5345 26.0228 90.7235 26.0275 90.9569C26.0275 91.1669 25.9691 91.3559 25.8525 91.5239C25.7358 91.6919 25.5701 91.8249 25.3555 91.9229C25.1455 92.0162 24.9028 92.0629 24.6275 92.0629ZM28.2847 92.0629C27.9907 92.0629 27.727 92.0139 27.4937 91.9159C27.2604 91.8132 27.076 91.6732 26.9407 91.4959C26.8054 91.3139 26.7307 91.1062 26.7167 90.8729H27.3747C27.3934 91.0642 27.482 91.2205 27.6407 91.3419C27.804 91.4632 28.0164 91.5239 28.2777 91.5239C28.5204 91.5239 28.7117 91.4702 28.8517 91.3629C28.9917 91.2555 29.0617 91.1202 29.0617 90.9569C29.0617 90.7889 28.987 90.6652 28.8377 90.5859C28.6884 90.5019 28.4574 90.4202 28.1447 90.3409C27.86 90.2662 27.6267 90.1915 27.4447 90.1169C27.2674 90.0375 27.1134 89.9232 26.9827 89.7739C26.8567 89.6199 26.7937 89.4192 26.7937 89.1719C26.7937 88.9759 26.852 88.7962 26.9687 88.6329C27.0854 88.4695 27.251 88.3412 27.4657 88.2479C27.6804 88.1499 27.9254 88.1009 28.2007 88.1009C28.6254 88.1009 28.9684 88.2082 29.2297 88.4229C29.491 88.6375 29.631 88.9315 29.6497 89.3049H29.0127C28.9987 89.1042 28.917 88.9432 28.7677 88.8219C28.623 88.7005 28.427 88.6399 28.1797 88.6399C27.951 88.6399 27.769 88.6889 27.6337 88.7869C27.4984 88.8849 27.4307 89.0132 27.4307 89.1719C27.4307 89.2979 27.4704 89.4029 27.5497 89.4869C27.6337 89.5662 27.7364 89.6315 27.8577 89.6829C27.9837 89.7295 28.1564 89.7832 28.3757 89.8439C28.651 89.9185 28.875 89.9932 29.0477 90.0679C29.2204 90.1379 29.3674 90.2452 29.4887 90.3899C29.6147 90.5345 29.68 90.7235 29.6847 90.9569C29.6847 91.1669 29.6264 91.3559 29.5097 91.5239C29.393 91.6919 29.2274 91.8249 29.0127 91.9229C28.8027 92.0162 28.56 92.0629 28.2847 92.0629ZM30.9129 87.5409C30.7916 87.5409 30.6889 87.4989 30.6049 87.4149C30.5209 87.3309 30.4789 87.2282 30.4789 87.1069C30.4789 86.9855 30.5209 86.8829 30.6049 86.7989C30.6889 86.7149 30.7916 86.6729 30.9129 86.6729C31.0296 86.6729 31.1276 86.7149 31.2069 86.7989C31.2909 86.8829 31.3329 86.9855 31.3329 87.1069C31.3329 87.2282 31.2909 87.3309 31.2069 87.4149C31.1276 87.4989 31.0296 87.5409 30.9129 87.5409ZM31.2209 88.1639V91.9999H30.5839V88.1639H31.2209ZM33.6646 92.0629C33.3706 92.0629 33.1069 92.0139 32.8736 91.9159C32.6402 91.8132 32.4559 91.6732 32.3206 91.4959C32.1852 91.3139 32.1106 91.1062 32.0966 90.8729H32.7546C32.7732 91.0642 32.8619 91.2205 33.0206 91.3419C33.1839 91.4632 33.3962 91.5239 33.6576 91.5239C33.9002 91.5239 34.0916 91.4702 34.2316 91.3629C34.3716 91.2555 34.4416 91.1202 34.4416 90.9569C34.4416 90.7889 34.3669 90.6652 34.2176 90.5859C34.0682 90.5019 33.8372 90.4202 33.5246 90.3409C33.2399 90.2662 33.0066 90.1915 32.8246 90.1169C32.6472 90.0375 32.4932 89.9232 32.3626 89.7739C32.2366 89.6199 32.1736 89.4192 32.1736 89.1719C32.1736 88.9759 32.2319 88.7962 32.3486 88.6329C32.4652 88.4695 32.6309 88.3412 32.8456 88.2479C33.0602 88.1499 33.3052 88.1009 33.5806 88.1009C34.0052 88.1009 34.3482 88.2082 34.6096 88.4229C34.8709 88.6375 35.0109 88.9315 35.0296 89.3049H34.3926C34.3786 89.1042 34.2969 88.9432 34.1476 88.8219C34.0029 88.7005 33.8069 88.6399 33.5596 88.6399C33.3309 88.6399 33.1489 88.6889 33.0136 88.7869C32.8782 88.8849 32.8106 89.0132 32.8106 89.1719C32.8106 89.2979 32.8502 89.4029 32.9296 89.4869C33.0136 89.5662 33.1162 89.6315 33.2376 89.6829C33.3636 89.7295 33.5362 89.7832 33.7556 89.8439C34.0309 89.9185 34.2549 89.9932 34.4276 90.0679C34.6002 90.1379 34.7472 90.2452 34.8686 90.3899C34.9946 90.5345 35.0599 90.7235 35.0646 90.9569C35.0646 91.1669 35.0062 91.3559 34.8896 91.5239C34.7729 91.6919 34.6072 91.8249 34.3926 91.9229C34.1826 92.0162 33.9399 92.0629 33.6646 92.0629ZM36.7408 88.6889V90.9499C36.7408 91.1365 36.7805 91.2695 36.8598 91.3489C36.9391 91.4235 37.0768 91.4609 37.2728 91.4609H37.7418V91.9999H37.1678C36.8131 91.9999 36.5471 91.9182 36.3698 91.7549C36.1925 91.5915 36.1038 91.3232 36.1038 90.9499V88.6889H35.6068V88.1639H36.1038V87.1979H36.7408V88.1639H37.7418V88.6889H36.7408ZM38.2756 90.0679C38.2756 89.6759 38.3549 89.3329 38.5136 89.0389C38.6723 88.7402 38.8893 88.5092 39.1646 88.3459C39.4446 88.1825 39.7549 88.1009 40.0956 88.1009C40.4316 88.1009 40.7233 88.1732 40.9706 88.3179C41.2179 88.4625 41.4023 88.6445 41.5236 88.8639V88.1639H42.1676V91.9999H41.5236V91.2859C41.3976 91.5099 41.2086 91.6965 40.9566 91.8459C40.7093 91.9905 40.4199 92.0629 40.0886 92.0629C39.7479 92.0629 39.4399 91.9789 39.1646 91.8109C38.8893 91.6429 38.6723 91.4072 38.5136 91.1039C38.3549 90.8005 38.2756 90.4552 38.2756 90.0679ZM41.5236 90.0749C41.5236 89.7855 41.4653 89.5335 41.3486 89.3189C41.2319 89.1042 41.0733 88.9409 40.8726 88.8289C40.6766 88.7122 40.4596 88.6539 40.2216 88.6539C39.9836 88.6539 39.7666 88.7099 39.5706 88.8219C39.3746 88.9339 39.2183 89.0972 39.1016 89.3119C38.9849 89.5265 38.9266 89.7785 38.9266 90.0679C38.9266 90.3619 38.9849 90.6185 39.1016 90.8379C39.2183 91.0525 39.3746 91.2182 39.5706 91.3349C39.7666 91.4469 39.9836 91.5029 40.2216 91.5029C40.4596 91.5029 40.6766 91.4469 40.8726 91.3349C41.0733 91.2182 41.2319 91.0525 41.3486 90.8379C41.4653 90.6185 41.5236 90.3642 41.5236 90.0749ZM45.1131 88.0939C45.5797 88.0939 45.9577 88.2362 46.2471 88.5209C46.5364 88.8009 46.6811 89.2069 46.6811 89.7389V91.9999H46.0511V89.8299C46.0511 89.4472 45.9554 89.1555 45.7641 88.9549C45.5727 88.7495 45.3114 88.6469 44.9801 88.6469C44.6441 88.6469 44.3757 88.7519 44.1751 88.9619C43.9791 89.1719 43.8811 89.4775 43.8811 89.8789V91.9999H43.2441V88.1639H43.8811V88.7099C44.0071 88.5139 44.1774 88.3622 44.3921 88.2549C44.6114 88.1475 44.8517 88.0939 45.1131 88.0939ZM48.4986 88.6889V90.9499C48.4986 91.1365 48.5383 91.2695 48.6176 91.3489C48.697 91.4235 48.8346 91.4609 49.0306 91.4609H49.4996V91.9999H48.9256C48.571 91.9999 48.305 91.9182 48.1276 91.7549C47.9503 91.5915 47.8616 91.3232 47.8616 90.9499V88.6889H47.3646V88.1639H47.8616V87.1979H48.4986V88.1639H49.4996V88.6889H48.4986ZM22.298 99.1209V104H21.661V101.788H19.176V104H18.539V99.1209H19.176V101.263H21.661V99.1209H22.298ZM23.1477 102.068C23.1477 101.676 23.227 101.333 23.3857 101.039C23.5443 100.74 23.7613 100.509 24.0367 100.346C24.3167 100.183 24.627 100.101 24.9677 100.101C25.3037 100.101 25.5953 100.173 25.8427 100.318C26.09 100.463 26.2743 100.645 26.3957 100.864V100.164H27.0397V104H26.3957V103.286C26.2697 103.51 26.0807 103.697 25.8287 103.846C25.5813 103.991 25.292 104.063 24.9607 104.063C24.62 104.063 24.312 103.979 24.0367 103.811C23.7613 103.643 23.5443 103.407 23.3857 103.104C23.227 102.801 23.1477 102.455 23.1477 102.068ZM26.3957 102.075C26.3957 101.786 26.3373 101.534 26.2207 101.319C26.104 101.104 25.9453 100.941 25.7447 100.829C25.5487 100.712 25.3317 100.654 25.0937 100.654C24.8557 100.654 24.6387 100.71 24.4427 100.822C24.2467 100.934 24.0903 101.097 23.9737 101.312C23.857 101.527 23.7987 101.779 23.7987 102.068C23.7987 102.362 23.857 102.619 23.9737 102.838C24.0903 103.053 24.2467 103.218 24.4427 103.335C24.6387 103.447 24.8557 103.503 25.0937 103.503C25.3317 103.503 25.5487 103.447 25.7447 103.335C25.9453 103.218 26.104 103.053 26.2207 102.838C26.3373 102.619 26.3957 102.364 26.3957 102.075ZM29.5441 103.412L30.7341 100.164H31.4131L29.9081 104H29.1661L27.6611 100.164H28.3471L29.5441 103.412ZM35.54 101.935C35.54 102.056 35.533 102.185 35.519 102.32H32.453C32.4763 102.698 32.6046 102.994 32.838 103.209C33.076 103.419 33.363 103.524 33.699 103.524C33.9743 103.524 34.203 103.461 34.385 103.335C34.5716 103.204 34.7023 103.032 34.777 102.817H35.463C35.3603 103.186 35.155 103.487 34.847 103.72C34.539 103.949 34.1563 104.063 33.699 104.063C33.335 104.063 33.0083 103.981 32.719 103.818C32.4343 103.655 32.2103 103.424 32.047 103.125C31.8836 102.822 31.802 102.472 31.802 102.075C31.802 101.678 31.8813 101.331 32.04 101.032C32.1986 100.733 32.4203 100.505 32.705 100.346C32.9943 100.183 33.3256 100.101 33.699 100.101C34.063 100.101 34.385 100.18 34.665 100.339C34.945 100.498 35.1596 100.717 35.309 100.997C35.463 101.272 35.54 101.585 35.54 101.935ZM34.882 101.802C34.882 101.559 34.8283 101.352 34.721 101.179C34.6136 101.002 34.4666 100.869 34.28 100.78C34.098 100.687 33.895 100.64 33.671 100.64C33.349 100.64 33.0736 100.743 32.845 100.948C32.621 101.153 32.4926 101.438 32.46 101.802H34.882ZM38.009 102.068C38.009 101.676 38.0883 101.333 38.247 101.039C38.4057 100.74 38.6227 100.509 38.898 100.346C39.178 100.183 39.4883 100.101 39.829 100.101C40.165 100.101 40.4567 100.173 40.704 100.318C40.9513 100.463 41.1357 100.645 41.257 100.864V100.164H41.901V104H41.257V103.286C41.131 103.51 40.942 103.697 40.69 103.846C40.4427 103.991 40.1533 104.063 39.822 104.063C39.4813 104.063 39.1733 103.979 38.898 103.811C38.6227 103.643 38.4057 103.407 38.247 103.104C38.0883 102.801 38.009 102.455 38.009 102.068ZM41.257 102.075C41.257 101.786 41.1987 101.534 41.082 101.319C40.9653 101.104 40.8067 100.941 40.606 100.829C40.41 100.712 40.193 100.654 39.955 100.654C39.717 100.654 39.5 100.71 39.304 100.822C39.108 100.934 38.9517 101.097 38.835 101.312C38.7183 101.527 38.66 101.779 38.66 102.068C38.66 102.362 38.7183 102.619 38.835 102.838C38.9517 103.053 39.108 103.218 39.304 103.335C39.5 103.447 39.717 103.503 39.955 103.503C40.193 103.503 40.41 103.447 40.606 103.335C40.8067 103.218 40.9653 103.053 41.082 102.838C41.1987 102.619 41.257 102.364 41.257 102.075ZM44.6057 102.068C44.6057 101.676 44.685 101.333 44.8437 101.039C45.0024 100.74 45.2194 100.509 45.4947 100.346C45.7747 100.183 46.0874 100.101 46.4327 100.101C46.7314 100.101 47.009 100.171 47.2657 100.311C47.5224 100.446 47.7184 100.626 47.8537 100.85V98.8199H48.4977V104H47.8537V103.279C47.7277 103.508 47.541 103.697 47.2937 103.846C47.0464 103.991 46.757 104.063 46.4257 104.063C46.085 104.063 45.7747 103.979 45.4947 103.811C45.2194 103.643 45.0024 103.407 44.8437 103.104C44.685 102.801 44.6057 102.455 44.6057 102.068ZM47.8537 102.075C47.8537 101.786 47.7954 101.534 47.6787 101.319C47.562 101.104 47.4034 100.941 47.2027 100.829C47.0067 100.712 46.7897 100.654 46.5517 100.654C46.3137 100.654 46.0967 100.71 45.9007 100.822C45.7047 100.934 45.5484 101.097 45.4317 101.312C45.315 101.527 45.2567 101.779 45.2567 102.068C45.2567 102.362 45.315 102.619 45.4317 102.838C45.5484 103.053 45.7047 103.218 45.9007 103.335C46.0967 103.447 46.3137 103.503 46.5517 103.503C46.7897 103.503 47.0067 103.447 47.2027 103.335C47.4034 103.218 47.562 103.053 47.6787 102.838C47.7954 102.619 47.8537 102.364 47.8537 102.075ZM49.9032 99.5409C49.7818 99.5409 49.6792 99.4989 49.5952 99.4149C49.5112 99.3309 49.4692 99.2282 49.4692 99.1069C49.4692 98.9855 49.5112 98.8829 49.5952 98.7989C49.6792 98.7149 49.7818 98.6729 49.9032 98.6729C50.0198 98.6729 50.1178 98.7149 50.1972 98.7989C50.2812 98.8829 50.3232 98.9855 50.3232 99.1069C50.3232 99.2282 50.2812 99.3309 50.1972 99.4149C50.1178 99.4989 50.0198 99.5409 49.9032 99.5409ZM50.2112 100.164V104H49.5742V100.164H50.2112ZM52.8788 100.101C53.2101 100.101 53.4995 100.173 53.7468 100.318C53.9988 100.463 54.1855 100.645 54.3068 100.864V100.164H54.9508V104.084C54.9508 104.434 54.8761 104.744 54.7268 105.015C54.5775 105.29 54.3628 105.505 54.0828 105.659C53.8075 105.813 53.4855 105.89 53.1168 105.89C52.6128 105.89 52.1928 105.771 51.8568 105.533C51.5208 105.295 51.3225 104.971 51.2618 104.56H51.8918C51.9618 104.793 52.1065 104.98 52.3258 105.12C52.5451 105.265 52.8088 105.337 53.1168 105.337C53.4668 105.337 53.7515 105.227 53.9708 105.008C54.1948 104.789 54.3068 104.481 54.3068 104.084V103.279C54.1808 103.503 53.9941 103.69 53.7468 103.839C53.4995 103.988 53.2101 104.063 52.8788 104.063C52.5381 104.063 52.2278 103.979 51.9478 103.811C51.6725 103.643 51.4555 103.407 51.2968 103.104C51.1381 102.801 51.0588 102.455 51.0588 102.068C51.0588 101.676 51.1381 101.333 51.2968 101.039C51.4555 100.74 51.6725 100.509 51.9478 100.346C52.2278 100.183 52.5381 100.101 52.8788 100.101ZM54.3068 102.075C54.3068 101.786 54.2485 101.534 54.1318 101.319C54.0151 101.104 53.8565 100.941 53.6558 100.829C53.4598 100.712 53.2428 100.654 53.0048 100.654C52.7668 100.654 52.5498 100.71 52.3538 100.822C52.1578 100.934 52.0015 101.097 51.8848 101.312C51.7681 101.527 51.7098 101.779 51.7098 102.068C51.7098 102.362 51.7681 102.619 51.8848 102.838C52.0015 103.053 52.1578 103.218 52.3538 103.335C52.5498 103.447 52.7668 103.503 53.0048 103.503C53.2428 103.503 53.4598 103.447 53.6558 103.335C53.8565 103.218 54.0151 103.053 54.1318 102.838C54.2485 102.619 54.3068 102.364 54.3068 102.075ZM56.3563 99.5409C56.2349 99.5409 56.1323 99.4989 56.0483 99.4149C55.9643 99.3309 55.9223 99.2282 55.9223 99.1069C55.9223 98.9855 55.9643 98.8829 56.0483 98.7989C56.1323 98.7149 56.2349 98.6729 56.3563 98.6729C56.4729 98.6729 56.5709 98.7149 56.6503 98.7989C56.7343 98.8829 56.7763 98.9855 56.7763 99.1069C56.7763 99.2282 56.7343 99.3309 56.6503 99.4149C56.5709 99.4989 56.4729 99.5409 56.3563 99.5409ZM56.6643 100.164V104H56.0273V100.164H56.6643ZM58.5269 100.689V102.95C58.5269 103.137 58.5666 103.27 58.6459 103.349C58.7253 103.424 58.8629 103.461 59.0589 103.461H59.5279V104H58.9539C58.5993 104 58.3333 103.918 58.1559 103.755C57.9786 103.592 57.8899 103.323 57.8899 102.95V100.689H57.3929V100.164H57.8899V99.1979H58.5269V100.164H59.5279V100.689H58.5269ZM60.0617 102.068C60.0617 101.676 60.1411 101.333 60.2997 101.039C60.4584 100.74 60.6754 100.509 60.9507 100.346C61.2307 100.183 61.5411 100.101 61.8817 100.101C62.2177 100.101 62.5094 100.173 62.7567 100.318C63.0041 100.463 63.1884 100.645 63.3097 100.864V100.164H63.9537V104H63.3097V103.286C63.1837 103.51 62.9947 103.697 62.7427 103.846C62.4954 103.991 62.2061 104.063 61.8747 104.063C61.5341 104.063 61.2261 103.979 60.9507 103.811C60.6754 103.643 60.4584 103.407 60.2997 103.104C60.1411 102.801 60.0617 102.455 60.0617 102.068ZM63.3097 102.075C63.3097 101.786 63.2514 101.534 63.1347 101.319C63.0181 101.104 62.8594 100.941 62.6587 100.829C62.4627 100.712 62.2457 100.654 62.0077 100.654C61.7697 100.654 61.5527 100.71 61.3567 100.822C61.1607 100.934 61.0044 101.097 60.8877 101.312C60.7711 101.527 60.7127 101.779 60.7127 102.068C60.7127 102.362 60.7711 102.619 60.8877 102.838C61.0044 103.053 61.1607 103.218 61.3567 103.335C61.5527 103.447 61.7697 103.503 62.0077 103.503C62.2457 103.503 62.4627 103.447 62.6587 103.335C62.8594 103.218 63.0181 103.053 63.1347 102.838C63.2514 102.619 63.3097 102.364 63.3097 102.075ZM65.6672 98.8199V104H65.0302V98.8199H65.6672ZM70.1801 100.689H69.3751V104H68.7381V100.689H68.2411V100.164H68.7381V99.8909C68.7381 99.4615 68.8477 99.1489 69.0671 98.9529C69.2911 98.7522 69.6481 98.6519 70.1381 98.6519V99.1839C69.8581 99.1839 69.6597 99.2399 69.5431 99.3519C69.4311 99.4592 69.3751 99.6389 69.3751 99.8909V100.164H70.1801V100.689ZM71.5598 100.787C71.6718 100.568 71.8305 100.397 72.0358 100.276C72.2458 100.155 72.5001 100.094 72.7988 100.094V100.752H72.6308C71.9168 100.752 71.5598 101.139 71.5598 101.914V104H70.9228V100.164H71.5598V100.787ZM73.8631 99.5409C73.7418 99.5409 73.6391 99.4989 73.5551 99.4149C73.4711 99.3309 73.4291 99.2282 73.4291 99.1069C73.4291 98.9855 73.4711 98.8829 73.5551 98.7989C73.6391 98.7149 73.7418 98.6729 73.8631 98.6729C73.9798 98.6729 74.0778 98.7149 74.1571 98.7989C74.2411 98.8829 74.2831 98.9855 74.2831 99.1069C74.2831 99.2282 74.2411 99.3309 74.1571 99.4149C74.0778 99.4989 73.9798 99.5409 73.8631 99.5409ZM74.1711 100.164V104H73.5341V100.164H74.1711ZM78.7568 101.935C78.7568 102.056 78.7498 102.185 78.7358 102.32H75.6698C75.6931 102.698 75.8214 102.994 76.0548 103.209C76.2928 103.419 76.5798 103.524 76.9158 103.524C77.1911 103.524 77.4198 103.461 77.6018 103.335C77.7884 103.204 77.9191 103.032 77.9938 102.817H78.6798C78.5771 103.186 78.3718 103.487 78.0638 103.72C77.7558 103.949 77.3731 104.063 76.9158 104.063C76.5518 104.063 76.2251 103.981 75.9358 103.818C75.6511 103.655 75.4271 103.424 75.2638 103.125C75.1004 102.822 75.0188 102.472 75.0188 102.075C75.0188 101.678 75.0981 101.331 75.2568 101.032C75.4154 100.733 75.6371 100.505 75.9218 100.346C76.2111 100.183 76.5424 100.101 76.9158 100.101C77.2798 100.101 77.6018 100.18 77.8818 100.339C78.1618 100.498 78.3764 100.717 78.5258 100.997C78.6798 101.272 78.7568 101.585 78.7568 101.935ZM78.0988 101.802C78.0988 101.559 78.0451 101.352 77.9378 101.179C77.8304 101.002 77.6834 100.869 77.4968 100.78C77.3148 100.687 77.1118 100.64 76.8878 100.64C76.5658 100.64 76.2904 100.743 76.0618 100.948C75.8378 101.153 75.7094 101.438 75.6768 101.802H78.0988ZM81.4666 100.094C81.9333 100.094 82.3113 100.236 82.6006 100.521C82.8899 100.801 83.0346 101.207 83.0346 101.739V104H82.4046V101.83C82.4046 101.447 82.3089 101.156 82.1176 100.955C81.9263 100.75 81.6649 100.647 81.3336 100.647C80.9976 100.647 80.7293 100.752 80.5286 100.962C80.3326 101.172 80.2346 101.478 80.2346 101.879V104H79.5976V100.164H80.2346V100.71C80.3606 100.514 80.5309 100.362 80.7456 100.255C80.9649 100.148 81.2053 100.094 81.4666 100.094ZM83.8371 102.068C83.8371 101.676 83.9165 101.333 84.0751 101.039C84.2338 100.74 84.4508 100.509 84.7261 100.346C85.0061 100.183 85.3188 100.101 85.6641 100.101C85.9628 100.101 86.2405 100.171 86.4971 100.311C86.7538 100.446 86.9498 100.626 87.0851 100.85V98.8199H87.7291V104H87.0851V103.279C86.9591 103.508 86.7725 103.697 86.5251 103.846C86.2778 103.991 85.9885 104.063 85.6571 104.063C85.3165 104.063 85.0061 103.979 84.7261 103.811C84.4508 103.643 84.2338 103.407 84.0751 103.104C83.9165 102.801 83.8371 102.455 83.8371 102.068ZM87.0851 102.075C87.0851 101.786 87.0268 101.534 86.9101 101.319C86.7935 101.104 86.6348 100.941 86.4341 100.829C86.2381 100.712 86.0211 100.654 85.7831 100.654C85.5451 100.654 85.3281 100.71 85.1321 100.822C84.9361 100.934 84.7798 101.097 84.6631 101.312C84.5465 101.527 84.4881 101.779 84.4881 102.068C84.4881 102.362 84.5465 102.619 84.6631 102.838C84.7798 103.053 84.9361 103.218 85.1321 103.335C85.3281 103.447 85.5451 103.503 85.7831 103.503C86.0211 103.503 86.2381 103.447 86.4341 103.335C86.6348 103.218 86.7935 103.053 86.9101 102.838C87.0268 102.619 87.0851 102.364 87.0851 102.075ZM22.375 116H21.738L19.176 112.115V116H18.539V111.114H19.176L21.738 114.992V111.114H22.375V116ZM25.1339 116.063C24.7745 116.063 24.4479 115.981 24.1539 115.818C23.8645 115.655 23.6359 115.424 23.4679 115.125C23.3045 114.822 23.2229 114.472 23.2229 114.075C23.2229 113.683 23.3069 113.338 23.4749 113.039C23.6475 112.736 23.8809 112.505 24.1749 112.346C24.4689 112.183 24.7979 112.101 25.1619 112.101C25.5259 112.101 25.8549 112.183 26.1489 112.346C26.4429 112.505 26.6739 112.733 26.8419 113.032C27.0145 113.331 27.1009 113.678 27.1009 114.075C27.1009 114.472 27.0122 114.822 26.8349 115.125C26.6622 115.424 26.4265 115.655 26.1279 115.818C25.8292 115.981 25.4979 116.063 25.1339 116.063ZM25.1339 115.503C25.3625 115.503 25.5772 115.449 25.7779 115.342C25.9785 115.235 26.1395 115.074 26.2609 114.859C26.3869 114.644 26.4499 114.383 26.4499 114.075C26.4499 113.767 26.3892 113.506 26.2679 113.291C26.1465 113.076 25.9879 112.918 25.7919 112.815C25.5959 112.708 25.3835 112.654 25.1549 112.654C24.9215 112.654 24.7069 112.708 24.5109 112.815C24.3195 112.918 24.1655 113.076 24.0489 113.291C23.9322 113.506 23.8739 113.767 23.8739 114.075C23.8739 114.388 23.9299 114.651 24.0419 114.866C24.1585 115.081 24.3125 115.242 24.5039 115.349C24.6952 115.452 24.9052 115.503 25.1339 115.503Z" fill="#090136"/>
<path d="M19.176 76.8709C19.302 76.6515 19.4887 76.4695 19.736 76.3249C19.988 76.1755 20.2797 76.1009 20.611 76.1009C20.9517 76.1009 21.2597 76.1825 21.535 76.3459C21.815 76.5092 22.0343 76.7402 22.193 77.0389C22.3517 77.3329 22.431 77.6759 22.431 78.0679C22.431 78.4552 22.3517 78.8005 22.193 79.1039C22.0343 79.4072 21.815 79.6429 21.535 79.8109C21.2597 79.9789 20.9517 80.0629 20.611 80.0629C20.2843 80.0629 19.995 79.9905 19.743 79.8459C19.4957 79.6965 19.3067 79.5122 19.176 79.2929V81.8199H18.539V76.1639H19.176V76.8709ZM21.78 78.0679C21.78 77.7785 21.7217 77.5265 21.605 77.3119C21.4883 77.0972 21.3297 76.9339 21.129 76.8219C20.933 76.7099 20.716 76.6539 20.478 76.6539C20.2447 76.6539 20.0277 76.7122 19.827 76.8289C19.631 76.9409 19.4723 77.1065 19.351 77.3259C19.2343 77.5405 19.176 77.7902 19.176 78.0749C19.176 78.3642 19.2343 78.6185 19.351 78.8379C19.4723 79.0525 19.631 79.2182 19.827 79.3349C20.0277 79.4469 20.2447 79.5029 20.478 79.5029C20.716 79.5029 20.933 79.4469 21.129 79.3349C21.3297 79.2182 21.4883 79.0525 21.605 78.8379C21.7217 78.6185 21.78 78.3619 21.78 78.0679ZM26.7695 77.9349C26.7695 78.0562 26.7625 78.1845 26.7485 78.3199H23.6825C23.7058 78.6979 23.8341 78.9942 24.0675 79.2089C24.3055 79.4189 24.5925 79.5239 24.9285 79.5239C25.2038 79.5239 25.4325 79.4609 25.6145 79.3349C25.8011 79.2042 25.9318 79.0315 26.0065 78.8169H26.6925C26.5898 79.1855 26.3845 79.4865 26.0765 79.7199C25.7685 79.9485 25.3858 80.0629 24.9285 80.0629C24.5645 80.0629 24.2378 79.9812 23.9485 79.8179C23.6638 79.6545 23.4398 79.4235 23.2765 79.1249C23.1131 78.8215 23.0315 78.4715 23.0315 78.0749C23.0315 77.6782 23.1108 77.3305 23.2695 77.0319C23.4281 76.7332 23.6498 76.5045 23.9345 76.3459C24.2238 76.1825 24.5551 76.1009 24.9285 76.1009C25.2925 76.1009 25.6145 76.1802 25.8945 76.3389C26.1745 76.4975 26.3891 76.7169 26.5385 76.9969C26.6925 77.2722 26.7695 77.5849 26.7695 77.9349ZM26.1115 77.8019C26.1115 77.5592 26.0578 77.3515 25.9505 77.1789C25.8431 77.0015 25.6961 76.8685 25.5095 76.7799C25.3275 76.6865 25.1245 76.6399 24.9005 76.6399C24.5785 76.6399 24.3031 76.7425 24.0745 76.9479C23.8505 77.1532 23.7221 77.4379 23.6895 77.8019H26.1115ZM28.2473 76.7869C28.3593 76.5675 28.518 76.3972 28.7233 76.2759C28.9333 76.1545 29.1876 76.0939 29.4863 76.0939V76.7519H29.3183C28.6043 76.7519 28.2473 77.1392 28.2473 77.9139V79.9999H27.6103V76.1639H28.2473V76.7869ZM31.5796 80.0629C31.2856 80.0629 31.022 80.0139 30.7886 79.9159C30.5553 79.8132 30.371 79.6732 30.2356 79.4959C30.1003 79.3139 30.0256 79.1062 30.0116 78.8729H30.6696C30.6883 79.0642 30.777 79.2205 30.9356 79.3419C31.099 79.4632 31.3113 79.5239 31.5726 79.5239C31.8153 79.5239 32.0066 79.4702 32.1466 79.3629C32.2866 79.2555 32.3566 79.1202 32.3566 78.9569C32.3566 78.7889 32.282 78.6652 32.1326 78.5859C31.9833 78.5019 31.7523 78.4202 31.4396 78.3409C31.155 78.2662 30.9216 78.1915 30.7396 78.1169C30.5623 78.0375 30.4083 77.9232 30.2776 77.7739C30.1516 77.6199 30.0886 77.4192 30.0886 77.1719C30.0886 76.9759 30.147 76.7962 30.2636 76.6329C30.3803 76.4695 30.546 76.3412 30.7606 76.2479C30.9753 76.1499 31.2203 76.1009 31.4956 76.1009C31.9203 76.1009 32.2633 76.2082 32.5246 76.4229C32.786 76.6375 32.926 76.9315 32.9446 77.3049H32.3076C32.2936 77.1042 32.212 76.9432 32.0626 76.8219C31.918 76.7005 31.722 76.6399 31.4746 76.6399C31.246 76.6399 31.064 76.6889 30.9286 76.7869C30.7933 76.8849 30.7256 77.0132 30.7256 77.1719C30.7256 77.2979 30.7653 77.4029 30.8446 77.4869C30.9286 77.5662 31.0313 77.6315 31.1526 77.6829C31.2786 77.7295 31.4513 77.7832 31.6706 77.8439C31.946 77.9185 32.17 77.9932 32.3426 78.0679C32.5153 78.1379 32.6623 78.2452 32.7836 78.3899C32.9096 78.5345 32.975 78.7235 32.9796 78.9569C32.9796 79.1669 32.9213 79.3559 32.8046 79.5239C32.688 79.6919 32.5223 79.8249 32.3076 79.9229C32.0976 80.0162 31.855 80.0629 31.5796 80.0629ZM35.5518 80.0629C35.1925 80.0629 34.8658 79.9812 34.5718 79.8179C34.2825 79.6545 34.0538 79.4235 33.8858 79.1249C33.7225 78.8215 33.6408 78.4715 33.6408 78.0749C33.6408 77.6829 33.7248 77.3375 33.8928 77.0389C34.0655 76.7355 34.2988 76.5045 34.5928 76.3459C34.8868 76.1825 35.2158 76.1009 35.5798 76.1009C35.9438 76.1009 36.2728 76.1825 36.5668 76.3459C36.8608 76.5045 37.0918 76.7332 37.2598 77.0319C37.4325 77.3305 37.5188 77.6782 37.5188 78.0749C37.5188 78.4715 37.4302 78.8215 37.2528 79.1249C37.0802 79.4235 36.8445 79.6545 36.5458 79.8179C36.2472 79.9812 35.9158 80.0629 35.5518 80.0629ZM35.5518 79.5029C35.7805 79.5029 35.9952 79.4492 36.1958 79.3419C36.3965 79.2345 36.5575 79.0735 36.6788 78.8589C36.8048 78.6442 36.8678 78.3829 36.8678 78.0749C36.8678 77.7669 36.8072 77.5055 36.6858 77.2909C36.5645 77.0762 36.4058 76.9175 36.2098 76.8149C36.0138 76.7075 35.8015 76.6539 35.5728 76.6539C35.3395 76.6539 35.1248 76.7075 34.9288 76.8149C34.7375 76.9175 34.5835 77.0762 34.4668 77.2909C34.3502 77.5055 34.2918 77.7669 34.2918 78.0749C34.2918 78.3875 34.3478 78.6512 34.4598 78.8659C34.5765 79.0805 34.7305 79.2415 34.9218 79.3489C35.1132 79.4515 35.3232 79.5029 35.5518 79.5029ZM40.2254 76.0939C40.692 76.0939 41.07 76.2362 41.3594 76.5209C41.6487 76.8009 41.7934 77.2069 41.7934 77.7389V79.9999H41.1634V77.8299C41.1634 77.4472 41.0677 77.1555 40.8764 76.9549C40.685 76.7495 40.4237 76.6469 40.0924 76.6469C39.7564 76.6469 39.488 76.7519 39.2874 76.9619C39.0914 77.1719 38.9934 77.4775 38.9934 77.8789V79.9999H38.3564V76.1639H38.9934V76.7099C39.1194 76.5139 39.2897 76.3622 39.5044 76.2549C39.7237 76.1475 39.964 76.0939 40.2254 76.0939ZM42.5959 78.0679C42.5959 77.6759 42.6753 77.3329 42.8339 77.0389C42.9926 76.7402 43.2096 76.5092 43.4849 76.3459C43.7649 76.1825 44.0753 76.1009 44.4159 76.1009C44.7519 76.1009 45.0436 76.1732 45.2909 76.3179C45.5383 76.4625 45.7226 76.6445 45.8439 76.8639V76.1639H46.4879V79.9999H45.8439V79.2859C45.7179 79.5099 45.5289 79.6965 45.2769 79.8459C45.0296 79.9905 44.7403 80.0629 44.4089 80.0629C44.0683 80.0629 43.7603 79.9789 43.4849 79.8109C43.2096 79.6429 42.9926 79.4072 42.8339 79.1039C42.6753 78.8005 42.5959 78.4552 42.5959 78.0679ZM45.8439 78.0749C45.8439 77.7855 45.7856 77.5335 45.6689 77.3189C45.5523 77.1042 45.3936 76.9409 45.1929 76.8289C44.9969 76.7122 44.7799 76.6539 44.5419 76.6539C44.3039 76.6539 44.0869 76.7099 43.8909 76.8219C43.6949 76.9339 43.5386 77.0972 43.4219 77.3119C43.3053 77.5265 43.2469 77.7785 43.2469 78.0679C43.2469 78.3619 43.3053 78.6185 43.4219 78.8379C43.5386 79.0525 43.6949 79.2182 43.8909 79.3349C44.0869 79.4469 44.3039 79.5029 44.5419 79.5029C44.7799 79.5029 44.9969 79.4469 45.1929 79.3349C45.3936 79.2182 45.5523 79.0525 45.6689 78.8379C45.7856 78.6185 45.8439 78.3642 45.8439 78.0749ZM48.2014 74.8199V79.9999H47.5644V74.8199H48.2014ZM49.616 75.5409C49.4947 75.5409 49.392 75.4989 49.308 75.4149C49.224 75.3309 49.182 75.2282 49.182 75.1069C49.182 74.9855 49.224 74.8829 49.308 74.7989C49.392 74.7149 49.4947 74.6729 49.616 74.6729C49.7327 74.6729 49.8307 74.7149 49.91 74.7989C49.994 74.8829 50.036 74.9855 50.036 75.1069C50.036 75.2282 49.994 75.3309 49.91 75.4149C49.8307 75.4989 49.7327 75.5409 49.616 75.5409ZM49.924 76.1639V79.9999H49.287V76.1639H49.924ZM52.3677 80.0629C52.0737 80.0629 51.81 80.0139 51.5767 79.9159C51.3434 79.8132 51.159 79.6732 51.0237 79.4959C50.8884 79.3139 50.8137 79.1062 50.7997 78.8729H51.4577C51.4764 79.0642 51.565 79.2205 51.7237 79.3419C51.887 79.4632 52.0994 79.5239 52.3607 79.5239C52.6034 79.5239 52.7947 79.4702 52.9347 79.3629C53.0747 79.2555 53.1447 79.1202 53.1447 78.9569C53.1447 78.7889 53.07 78.6652 52.9207 78.5859C52.7714 78.5019 52.5404 78.4202 52.2277 78.3409C51.943 78.2662 51.7097 78.1915 51.5277 78.1169C51.3504 78.0375 51.1964 77.9232 51.0657 77.7739C50.9397 77.6199 50.8767 77.4192 50.8767 77.1719C50.8767 76.9759 50.935 76.7962 51.0517 76.6329C51.1684 76.4695 51.334 76.3412 51.5487 76.2479C51.7634 76.1499 52.0084 76.1009 52.2837 76.1009C52.7084 76.1009 53.0514 76.2082 53.3127 76.4229C53.574 76.6375 53.714 76.9315 53.7327 77.3049H53.0957C53.0817 77.1042 53 76.9432 52.8507 76.8219C52.706 76.7005 52.51 76.6399 52.2627 76.6399C52.034 76.6399 51.852 76.6889 51.7167 76.7869C51.5814 76.8849 51.5137 77.0132 51.5137 77.1719C51.5137 77.2979 51.5534 77.4029 51.6327 77.4869C51.7167 77.5662 51.8194 77.6315 51.9407 77.6829C52.0667 77.7295 52.2394 77.7832 52.4587 77.8439C52.734 77.9185 52.958 77.9932 53.1307 78.0679C53.3034 78.1379 53.4504 78.2452 53.5717 78.3899C53.6977 78.5345 53.763 78.7235 53.7677 78.9569C53.7677 79.1669 53.7094 79.3559 53.5927 79.5239C53.476 79.6919 53.3104 79.8249 53.0957 79.9229C52.8857 80.0162 52.643 80.0629 52.3677 80.0629ZM58.1669 77.9349C58.1669 78.0562 58.1599 78.1845 58.1459 78.3199H55.0799C55.1033 78.6979 55.2316 78.9942 55.4649 79.2089C55.7029 79.4189 55.9899 79.5239 56.3259 79.5239C56.6013 79.5239 56.8299 79.4609 57.0119 79.3349C57.1986 79.2042 57.3293 79.0315 57.4039 78.8169H58.0899C57.9873 79.1855 57.7819 79.4865 57.4739 79.7199C57.1659 79.9485 56.7833 80.0629 56.3259 80.0629C55.9619 80.0629 55.6353 79.9812 55.3459 79.8179C55.0613 79.6545 54.8373 79.4235 54.6739 79.1249C54.5106 78.8215 54.4289 78.4715 54.4289 78.0749C54.4289 77.6782 54.5083 77.3305 54.6669 77.0319C54.8256 76.7332 55.0473 76.5045 55.3319 76.3459C55.6213 76.1825 55.9526 76.1009 56.3259 76.1009C56.6899 76.1009 57.0119 76.1802 57.2919 76.3389C57.5719 76.4975 57.7866 76.7169 57.9359 76.9969C58.0899 77.2722 58.1669 77.5849 58.1669 77.9349ZM57.5089 77.8019C57.5089 77.5592 57.4553 77.3515 57.3479 77.1789C57.2406 77.0015 57.0936 76.8685 56.9069 76.7799C56.7249 76.6865 56.5219 76.6399 56.2979 76.6399C55.9759 76.6399 55.7006 76.7425 55.4719 76.9479C55.2479 77.1532 55.1196 77.4379 55.0869 77.8019H57.5089ZM58.7698 78.0679C58.7698 77.6759 58.8491 77.3329 59.0078 77.0389C59.1664 76.7402 59.3834 76.5092 59.6588 76.3459C59.9388 76.1825 60.2514 76.1009 60.5968 76.1009C60.8954 76.1009 61.1731 76.1709 61.4298 76.3109C61.6864 76.4462 61.8824 76.6259 62.0178 76.8499V74.8199H62.6618V79.9999H62.0178V79.2789C61.8918 79.5075 61.7051 79.6965 61.4578 79.8459C61.2104 79.9905 60.9211 80.0629 60.5898 80.0629C60.2491 80.0629 59.9388 79.9789 59.6588 79.8109C59.3834 79.6429 59.1664 79.4072 59.0078 79.1039C58.8491 78.8005 58.7698 78.4552 58.7698 78.0679ZM62.0178 78.0749C62.0178 77.7855 61.9594 77.5335 61.8428 77.3189C61.7261 77.1042 61.5674 76.9409 61.3668 76.8289C61.1708 76.7122 60.9538 76.6539 60.7158 76.6539C60.4778 76.6539 60.2608 76.7099 60.0648 76.8219C59.8688 76.9339 59.7124 77.0972 59.5958 77.3119C59.4791 77.5265 59.4208 77.7785 59.4208 78.0679C59.4208 78.3619 59.4791 78.6185 59.5958 78.8379C59.7124 79.0525 59.8688 79.2182 60.0648 79.3349C60.2608 79.4469 60.4778 79.5029 60.7158 79.5029C60.9538 79.5029 61.1708 79.4469 61.3668 79.3349C61.5674 79.2182 61.7261 79.0525 61.8428 78.8379C61.9594 78.6185 62.0178 78.3642 62.0178 78.0749ZM30.4416 112.787C30.5536 112.568 30.7123 112.397 30.9176 112.276C31.1276 112.155 31.382 112.094 31.6806 112.094V112.752H31.5126C30.7986 112.752 30.4416 113.139 30.4416 113.914V116H29.8046V112.164H30.4416V112.787ZM35.916 113.935C35.916 114.056 35.909 114.185 35.895 114.32H32.829C32.8523 114.698 32.9806 114.994 33.214 115.209C33.452 115.419 33.739 115.524 34.075 115.524C34.3503 115.524 34.579 115.461 34.761 115.335C34.9476 115.204 35.0783 115.032 35.153 114.817H35.839C35.7363 115.186 35.531 115.487 35.223 115.72C34.915 115.949 34.5323 116.063 34.075 116.063C33.711 116.063 33.3843 115.981 33.095 115.818C32.8103 115.655 32.5863 115.424 32.423 115.125C32.2596 114.822 32.178 114.472 32.178 114.075C32.178 113.678 32.2573 113.331 32.416 113.032C32.5746 112.733 32.7963 112.505 33.081 112.346C33.3703 112.183 33.7016 112.101 34.075 112.101C34.439 112.101 34.761 112.18 35.041 112.339C35.321 112.498 35.5356 112.717 35.685 112.997C35.839 113.272 35.916 113.585 35.916 113.935ZM35.258 113.802C35.258 113.559 35.2043 113.352 35.097 113.179C34.9896 113.002 34.8426 112.869 34.656 112.78C34.474 112.687 34.271 112.64 34.047 112.64C33.725 112.64 33.4496 112.743 33.221 112.948C32.997 113.153 32.8686 113.438 32.836 113.802H35.258ZM38.1148 116.063C37.8208 116.063 37.5571 116.014 37.3238 115.916C37.0904 115.813 36.9061 115.673 36.7708 115.496C36.6354 115.314 36.5608 115.106 36.5468 114.873H37.2048C37.2234 115.064 37.3121 115.221 37.4708 115.342C37.6341 115.463 37.8464 115.524 38.1078 115.524C38.3504 115.524 38.5418 115.47 38.6818 115.363C38.8218 115.256 38.8918 115.12 38.8918 114.957C38.8918 114.789 38.8171 114.665 38.6678 114.586C38.5184 114.502 38.2874 114.42 37.9748 114.341C37.6901 114.266 37.4568 114.192 37.2748 114.117C37.0974 114.038 36.9434 113.923 36.8128 113.774C36.6868 113.62 36.6238 113.419 36.6238 113.172C36.6238 112.976 36.6821 112.796 36.7988 112.633C36.9154 112.47 37.0811 112.341 37.2958 112.248C37.5104 112.15 37.7554 112.101 38.0308 112.101C38.4554 112.101 38.7984 112.208 39.0598 112.423C39.3211 112.638 39.4611 112.932 39.4798 113.305H38.8428C38.8288 113.104 38.7471 112.943 38.5978 112.822C38.4531 112.701 38.2571 112.64 38.0098 112.64C37.7811 112.64 37.5991 112.689 37.4638 112.787C37.3284 112.885 37.2608 113.013 37.2608 113.172C37.2608 113.298 37.3004 113.403 37.3798 113.487C37.4638 113.566 37.5664 113.632 37.6878 113.683C37.8138 113.73 37.9864 113.783 38.2058 113.844C38.4811 113.919 38.7051 113.993 38.8778 114.068C39.0504 114.138 39.1974 114.245 39.3188 114.39C39.4448 114.535 39.5101 114.724 39.5148 114.957C39.5148 115.167 39.4564 115.356 39.3398 115.524C39.2231 115.692 39.0574 115.825 38.8428 115.923C38.6328 116.016 38.3901 116.063 38.1148 116.063ZM41.191 112.689V114.95C41.191 115.137 41.2307 115.27 41.31 115.349C41.3893 115.424 41.527 115.461 41.723 115.461H42.192V116H41.618C41.2633 116 40.9973 115.918 40.82 115.755C40.6427 115.592 40.554 115.323 40.554 114.95V112.689H40.057V112.164H40.554V111.198H41.191V112.164H42.192V112.689H41.191ZM43.6008 112.787C43.7128 112.568 43.8715 112.397 44.0768 112.276C44.2868 112.155 44.5411 112.094 44.8398 112.094V112.752H44.6718C43.9578 112.752 43.6008 113.139 43.6008 113.914V116H42.9638V112.164H43.6008V112.787ZM45.9041 111.541C45.7828 111.541 45.6801 111.499 45.5961 111.415C45.5121 111.331 45.4701 111.228 45.4701 111.107C45.4701 110.986 45.5121 110.883 45.5961 110.799C45.6801 110.715 45.7828 110.673 45.9041 110.673C46.0208 110.673 46.1188 110.715 46.1981 110.799C46.2821 110.883 46.3241 110.986 46.3241 111.107C46.3241 111.228 46.2821 111.331 46.1981 111.415C46.1188 111.499 46.0208 111.541 45.9041 111.541ZM46.2121 112.164V116H45.5751V112.164H46.2121ZM47.0598 114.075C47.0598 113.678 47.1391 113.333 47.2978 113.039C47.4565 112.74 47.6758 112.509 47.9558 112.346C48.2405 112.183 48.5648 112.101 48.9288 112.101C49.4001 112.101 49.7875 112.215 50.0908 112.444C50.3988 112.673 50.6018 112.99 50.6998 113.396H50.0138C49.9485 113.163 49.8201 112.978 49.6288 112.843C49.4421 112.708 49.2088 112.64 48.9288 112.64C48.5648 112.64 48.2708 112.766 48.0468 113.018C47.8228 113.265 47.7108 113.618 47.7108 114.075C47.7108 114.537 47.8228 114.894 48.0468 115.146C48.2708 115.398 48.5648 115.524 48.9288 115.524C49.2088 115.524 49.4421 115.459 49.6288 115.328C49.8155 115.197 49.9438 115.011 50.0138 114.768H50.6998C50.5971 115.16 50.3918 115.475 50.0838 115.713C49.7758 115.946 49.3908 116.063 48.9288 116.063C48.5648 116.063 48.2405 115.981 47.9558 115.818C47.6758 115.655 47.4565 115.424 47.2978 115.125C47.1391 114.826 47.0598 114.476 47.0598 114.075ZM52.3267 112.689V114.95C52.3267 115.137 52.3664 115.27 52.4457 115.349C52.5251 115.424 52.6627 115.461 52.8587 115.461H53.3277V116H52.7537C52.3991 116 52.1331 115.918 51.9557 115.755C51.7784 115.592 51.6897 115.323 51.6897 114.95V112.689H51.1927V112.164H51.6897V111.198H52.3267V112.164H53.3277V112.689H52.3267ZM54.4285 111.541C54.3072 111.541 54.2045 111.499 54.1205 111.415C54.0365 111.331 53.9945 111.228 53.9945 111.107C53.9945 110.986 54.0365 110.883 54.1205 110.799C54.2045 110.715 54.3072 110.673 54.4285 110.673C54.5452 110.673 54.6432 110.715 54.7225 110.799C54.8065 110.883 54.8485 110.986 54.8485 111.107C54.8485 111.228 54.8065 111.331 54.7225 111.415C54.6432 111.499 54.5452 111.541 54.4285 111.541ZM54.7365 112.164V116H54.0995V112.164H54.7365ZM57.4952 116.063C57.1359 116.063 56.8092 115.981 56.5152 115.818C56.2259 115.655 55.9972 115.424 55.8292 115.125C55.6659 114.822 55.5842 114.472 55.5842 114.075C55.5842 113.683 55.6682 113.338 55.8362 113.039C56.0089 112.736 56.2422 112.505 56.5362 112.346C56.8302 112.183 57.1592 112.101 57.5232 112.101C57.8872 112.101 58.2162 112.183 58.5102 112.346C58.8042 112.505 59.0352 112.733 59.2032 113.032C59.3759 113.331 59.4622 113.678 59.4622 114.075C59.4622 114.472 59.3735 114.822 59.1962 115.125C59.0235 115.424 58.7879 115.655 58.4892 115.818C58.1905 115.981 57.8592 116.063 57.4952 116.063ZM57.4952 115.503C57.7239 115.503 57.9385 115.449 58.1392 115.342C58.3399 115.235 58.5009 115.074 58.6222 114.859C58.7482 114.644 58.8112 114.383 58.8112 114.075C58.8112 113.767 58.7505 113.506 58.6292 113.291C58.5079 113.076 58.3492 112.918 58.1532 112.815C57.9572 112.708 57.7449 112.654 57.5162 112.654C57.2829 112.654 57.0682 112.708 56.8722 112.815C56.6809 112.918 56.5269 113.076 56.4102 113.291C56.2935 113.506 56.2352 113.767 56.2352 114.075C56.2352 114.388 56.2912 114.651 56.4032 114.866C56.5199 115.081 56.6739 115.242 56.8652 115.349C57.0565 115.452 57.2665 115.503 57.4952 115.503ZM62.1687 112.094C62.6354 112.094 63.0134 112.236 63.3027 112.521C63.5921 112.801 63.7367 113.207 63.7367 113.739V116H63.1067V113.83C63.1067 113.447 63.0111 113.156 62.8197 112.955C62.6284 112.75 62.3671 112.647 62.0357 112.647C61.6997 112.647 61.4314 112.752 61.2307 112.962C61.0347 113.172 60.9367 113.478 60.9367 113.879V116H60.2997V112.164H60.9367V112.71C61.0627 112.514 61.2331 112.362 61.4477 112.255C61.6671 112.148 61.9074 112.094 62.1687 112.094ZM66.1353 116.063C65.8413 116.063 65.5776 116.014 65.3443 115.916C65.1109 115.813 64.9266 115.673 64.7913 115.496C64.6559 115.314 64.5813 115.106 64.5673 114.873H65.2253C65.2439 115.064 65.3326 115.221 65.4913 115.342C65.6546 115.463 65.8669 115.524 66.1283 115.524C66.3709 115.524 66.5623 115.47 66.7023 115.363C66.8423 115.256 66.9123 115.12 66.9123 114.957C66.9123 114.789 66.8376 114.665 66.6883 114.586C66.5389 114.502 66.3079 114.42 65.9953 114.341C65.7106 114.266 65.4773 114.192 65.2953 114.117C65.1179 114.038 64.9639 113.923 64.8333 113.774C64.7073 113.62 64.6443 113.419 64.6443 113.172C64.6443 112.976 64.7026 112.796 64.8193 112.633C64.9359 112.47 65.1016 112.341 65.3163 112.248C65.5309 112.15 65.7759 112.101 66.0513 112.101C66.4759 112.101 66.8189 112.208 67.0803 112.423C67.3416 112.638 67.4816 112.932 67.5003 113.305H66.8633C66.8493 113.104 66.7676 112.943 66.6183 112.822C66.4736 112.701 66.2776 112.64 66.0303 112.64C65.8016 112.64 65.6196 112.689 65.4843 112.787C65.3489 112.885 65.2813 113.013 65.2813 113.172C65.2813 113.298 65.3209 113.403 65.4003 113.487C65.4843 113.566 65.5869 113.632 65.7083 113.683C65.8343 113.73 66.0069 113.783 66.2263 113.844C66.5016 113.919 66.7256 113.993 66.8983 114.068C67.0709 114.138 67.2179 114.245 67.3393 114.39C67.4653 114.535 67.5306 114.724 67.5353 114.957C67.5353 115.167 67.4769 115.356 67.3603 115.524C67.2436 115.692 67.0779 115.825 66.8633 115.923C66.6533 116.016 66.4106 116.063 66.1353 116.063Z" fill="white"/>
<circle cx="13.2466" cy="66.4906" r="1.21635" fill="#090136"/>
<circle cx="13.2466" cy="102.216" r="1.21635" fill="#090136"/>
<circle cx="13.2466" cy="114.216" r="1.21635" fill="#090136"/>
</svg>
