<svg width="96" height="171" viewBox="0 0 96 171" fill="none" xmlns="http://www.w3.org/2000/svg">
<path d="M0 10V142C0 147.523 4.47715 152 10 152H14.5C16.1569 152 17.4802 153.352 17.6299 155.002C18.3886 163.365 22.3547 166.875 26.4103 169.039C27.7596 169.759 29.3688 168.604 29.5927 167.091C30.3371 162.062 33.5833 157.438 36.4229 154.421C37.9928 152.753 40.2498 152 42.5403 152H86C91.5229 152 96 147.523 96 142V10C96 4.47715 91.5228 0 86 0H10C4.47715 0 0 4.47715 0 10Z" fill="white"/>
<path d="M10.56 30V22.8H12.09L14.61 25.81L17.12 22.8H18.66V30H17.21V24.95L14.61 28.06L12 24.96V30H10.56ZM21.1195 30C20.8661 30 20.6295 29.9367 20.4095 29.81C20.1961 29.6767 20.0261 29.5033 19.8995 29.29C19.7728 29.0767 19.7095 28.8433 19.7095 28.59V26.38H24.1695V25.68C24.1695 25.6667 24.1628 25.6533 24.1495 25.64C24.1361 25.6267 24.1228 25.62 24.1095 25.62H19.7095V24.2H24.1795C24.4395 24.2 24.6761 24.2667 24.8895 24.4C25.1028 24.5267 25.2728 24.6967 25.3995 24.91C25.5261 25.1233 25.5895 25.3567 25.5895 25.61V30H21.1195ZM21.1895 28.58H24.1695V27.65H21.1295V28.52C21.1295 28.5333 21.1361 28.5467 21.1495 28.56C21.1628 28.5733 21.1761 28.58 21.1895 28.58ZM26.4184 30V25.61C26.4184 25.3567 26.4818 25.1233 26.6084 24.91C26.7418 24.6967 26.9151 24.5267 27.1284 24.4C27.3484 24.2667 27.5851 24.2 27.8384 24.2H31.0484V25.62H27.8984C27.8851 25.62 27.8718 25.6267 27.8584 25.64C27.8451 25.6533 27.8384 25.6667 27.8384 25.68V30H26.4184ZM31.6826 30V22.3H33.1026V26.38H34.0126L36.0226 24.2H37.4926V24.64L35.2626 27.1L37.4926 29.56V30H36.0226L34.0126 27.82H33.1026V30H31.6826ZM39.5177 30C39.2643 30 39.031 29.9367 38.8177 29.81C38.6043 29.6767 38.431 29.5033 38.2977 29.29C38.171 29.0767 38.1077 28.8433 38.1077 28.59V25.61C38.1077 25.3567 38.171 25.1233 38.2977 24.91C38.431 24.6967 38.6043 24.5267 38.8177 24.4C39.031 24.2667 39.2643 24.2 39.5177 24.2H42.5777C42.8377 24.2 43.0743 24.2667 43.2877 24.4C43.501 24.5267 43.671 24.6967 43.7977 24.91C43.9243 25.1233 43.9877 25.3567 43.9877 25.61V27.82H39.5277V28.52C39.5277 28.5333 39.5343 28.5467 39.5477 28.56C39.561 28.5733 39.5743 28.58 39.5877 28.58H43.9877V30H39.5177ZM39.5277 26.55H42.5677V25.68C42.5677 25.6667 42.561 25.6533 42.5477 25.64C42.5343 25.6267 42.521 25.62 42.5077 25.62H39.5877C39.5743 25.62 39.561 25.6267 39.5477 25.64C39.5343 25.6533 39.5277 25.6667 39.5277 25.68V26.55ZM46.4715 30C46.2115 30 45.9748 29.9367 45.7615 29.81C45.5482 29.6767 45.3748 29.5033 45.2415 29.29C45.1148 29.0767 45.0515 28.8433 45.0515 28.59V22.45H46.4715V24.2H48.6815V25.62H46.4715V28.52C46.4715 28.5333 46.4782 28.5467 46.4915 28.56C46.5048 28.5733 46.5182 28.58 46.5315 28.58H48.6815V30H46.4715ZM16.22 40L14.09 37.46H15.98L17.74 39.55V40H16.22ZM10.56 40V32.81H16.31C16.5767 32.81 16.8167 32.8767 17.03 33.01C17.25 33.1367 17.4267 33.31 17.56 33.53C17.6933 33.75 17.76 33.99 17.76 34.25V36.15C17.76 36.41 17.6933 36.65 17.56 36.87C17.4267 37.0833 17.25 37.2567 17.03 37.39C16.8167 37.5167 16.5767 37.58 16.31 37.58L12 37.59V40H10.56ZM12.06 36.13H16.24C16.26 36.13 16.2733 36.1267 16.28 36.12C16.2933 36.1067 16.3 36.0933 16.3 36.08V34.31C16.3 34.29 16.2933 34.2767 16.28 34.27C16.2733 34.2567 16.26 34.25 16.24 34.25H12.06C12.04 34.25 12.0233 34.2567 12.01 34.27C12.0033 34.2767 12 34.29 12 34.31V36.08C12 36.0933 12.0033 36.1067 12.01 36.12C12.0233 36.1267 12.04 36.13 12.06 36.13ZM20.172 40C19.9186 40 19.6853 39.9367 19.472 39.81C19.2586 39.6767 19.0853 39.5033 18.952 39.29C18.8253 39.0767 18.762 38.8433 18.762 38.59V35.61C18.762 35.3567 18.8253 35.1233 18.952 34.91C19.0853 34.6967 19.2586 34.5267 19.472 34.4C19.6853 34.2667 19.9186 34.2 20.172 34.2H23.232C23.492 34.2 23.7286 34.2667 23.942 34.4C24.1553 34.5267 24.3253 34.6967 24.452 34.91C24.5786 35.1233 24.642 35.3567 24.642 35.61V37.82H20.182V38.52C20.182 38.5333 20.1886 38.5467 20.202 38.56C20.2153 38.5733 20.2286 38.58 20.242 38.58H24.642V40H20.172ZM20.182 36.55H23.222V35.68C23.222 35.6667 23.2153 35.6533 23.202 35.64C23.1886 35.6267 23.1753 35.62 23.162 35.62H20.242C20.2286 35.62 20.2153 35.6267 20.202 35.64C20.1886 35.6533 20.182 35.6667 20.182 35.68V36.55ZM26.9779 40C26.7246 40 26.4912 39.9367 26.2779 39.81C26.0646 39.6767 25.8912 39.5033 25.7579 39.29C25.6312 39.0767 25.5679 38.8433 25.5679 38.59V38.33H26.9879V38.52C26.9879 38.5333 26.9946 38.5467 27.0079 38.56C27.0212 38.5733 27.0346 38.58 27.0479 38.58H29.9679C29.9812 38.58 29.9946 38.5733 30.0079 38.56C30.0212 38.5467 30.0279 38.5333 30.0279 38.52V37.87C30.0279 37.8567 30.0212 37.8467 30.0079 37.84C29.9946 37.8267 29.9812 37.82 29.9679 37.82H26.9779C26.7246 37.82 26.4912 37.7567 26.2779 37.63C26.0646 37.4967 25.8912 37.3233 25.7579 37.11C25.6312 36.8967 25.5679 36.66 25.5679 36.4V35.61C25.5679 35.3567 25.6312 35.1233 25.7579 34.91C25.8912 34.6967 26.0646 34.5267 26.2779 34.4C26.4912 34.2667 26.7246 34.2 26.9779 34.2H30.0379C30.2979 34.2 30.5346 34.2667 30.7479 34.4C30.9612 34.5267 31.1312 34.6967 31.2579 34.91C31.3912 35.1233 31.4579 35.3567 31.4579 35.61V35.87H30.0279V35.68C30.0279 35.6667 30.0212 35.6533 30.0079 35.64C29.9946 35.6267 29.9812 35.62 29.9679 35.62H27.0479C27.0346 35.62 27.0212 35.6267 27.0079 35.64C26.9946 35.6533 26.9879 35.6667 26.9879 35.68V36.33C26.9879 36.3433 26.9946 36.3567 27.0079 36.37C27.0212 36.3767 27.0346 36.38 27.0479 36.38H30.0379C30.2979 36.38 30.5346 36.4467 30.7479 36.58C30.9612 36.7067 31.1312 36.8767 31.2579 37.09C31.3912 37.3033 31.4579 37.54 31.4579 37.8V38.59C31.4579 38.8433 31.3912 39.0767 31.2579 39.29C31.1312 39.5033 30.9612 39.6767 30.7479 39.81C30.5346 39.9367 30.2979 40 30.0379 40H26.9779ZM33.668 40C33.4147 40 33.1814 39.9367 32.968 39.81C32.7547 39.6767 32.5814 39.5033 32.448 39.29C32.3214 39.0767 32.258 38.8433 32.258 38.59V35.61C32.258 35.3567 32.3214 35.1233 32.448 34.91C32.5814 34.6967 32.7547 34.5267 32.968 34.4C33.1814 34.2667 33.4147 34.2 33.668 34.2H36.728C36.988 34.2 37.2247 34.2667 37.438 34.4C37.6514 34.5267 37.8214 34.6967 37.948 34.91C38.0747 35.1233 38.138 35.3567 38.138 35.61V37.82H33.678V38.52C33.678 38.5333 33.6847 38.5467 33.698 38.56C33.7114 38.5733 33.7247 38.58 33.738 38.58H38.138V40H33.668ZM33.678 36.55H36.718V35.68C36.718 35.6667 36.7114 35.6533 36.698 35.64C36.6847 35.6267 36.6714 35.62 36.658 35.62H33.738C33.7247 35.62 33.7114 35.6267 33.698 35.64C33.6847 35.6533 33.678 35.6667 33.678 35.68V36.55ZM40.6019 40C40.3485 40 40.1119 39.9367 39.8919 39.81C39.6785 39.6767 39.5085 39.5033 39.3819 39.29C39.2552 39.0767 39.1919 38.8433 39.1919 38.59V36.38H43.6519V35.68C43.6519 35.6667 43.6452 35.6533 43.6319 35.64C43.6185 35.6267 43.6052 35.62 43.5919 35.62H39.1919V34.2H43.6619C43.9219 34.2 44.1585 34.2667 44.3719 34.4C44.5852 34.5267 44.7552 34.6967 44.8819 34.91C45.0085 35.1233 45.0719 35.3567 45.0719 35.61V40H40.6019ZM40.6719 38.58H43.6519V37.65H40.6119V38.52C40.6119 38.5333 40.6185 38.5467 40.6319 38.56C40.6452 38.5733 40.6585 38.58 40.6719 38.58ZM45.9009 40V35.61C45.9009 35.3567 45.9642 35.1233 46.0909 34.91C46.2242 34.6967 46.3975 34.5267 46.6109 34.4C46.8309 34.2667 47.0675 34.2 47.3209 34.2H50.5309V35.62H47.3809C47.3675 35.62 47.3542 35.6267 47.3409 35.64C47.3275 35.6533 47.3209 35.6667 47.3209 35.68V40H45.9009ZM52.545 40C52.2917 40 52.0583 39.9367 51.845 39.81C51.6317 39.6767 51.4583 39.5033 51.325 39.29C51.1983 39.0767 51.135 38.8433 51.135 38.59V35.61C51.135 35.3567 51.1983 35.1233 51.325 34.91C51.4583 34.6967 51.6317 34.5267 51.845 34.4C52.0583 34.2667 52.2917 34.2 52.545 34.2H57.005V35.62H52.615C52.6017 35.62 52.5883 35.6267 52.575 35.64C52.5617 35.6533 52.555 35.6667 52.555 35.68V38.52C52.555 38.5333 52.5617 38.5467 52.575 38.56C52.5883 38.5733 52.6017 38.58 52.615 38.58H57.015V40H52.545ZM57.8545 40V32.3H59.2745V34.2H62.3245C62.5778 34.2 62.8111 34.2667 63.0245 34.4C63.2378 34.5267 63.4078 34.6967 63.5345 34.91C63.6678 35.1233 63.7345 35.3567 63.7345 35.61V40H62.3145V35.68C62.3145 35.6667 62.3078 35.6533 62.2945 35.64C62.2878 35.6267 62.2745 35.62 62.2545 35.62H59.3345C59.3211 35.62 59.3078 35.6267 59.2945 35.64C59.2811 35.6533 59.2745 35.6667 59.2745 35.68V40H57.8545ZM10.59 50V42.8H16.07C16.33 42.8 16.5667 42.8667 16.78 43C17 43.1267 17.1767 43.3 17.31 43.52C17.4433 43.7333 17.51 43.9733 17.51 44.24V45.62C17.51 45.7067 17.5033 45.79 17.49 45.87C17.4767 45.9433 17.4567 46.0167 17.43 46.09C17.5367 46.23 17.6233 46.3833 17.69 46.55C17.7567 46.71 17.79 46.8733 17.79 47.04V48.56C17.79 48.8267 17.7233 49.07 17.59 49.29C17.4567 49.5033 17.28 49.6767 17.06 49.81C16.8467 49.9367 16.6067 50 16.34 50H10.59ZM12.09 48.55H16.27C16.29 48.55 16.3033 48.5467 16.31 48.54C16.3233 48.5267 16.33 48.51 16.33 48.49V47.12C16.33 47.1067 16.3233 47.0933 16.31 47.08C16.3033 47.0667 16.29 47.06 16.27 47.06H12.09C12.07 47.06 12.0533 47.0667 12.04 47.08C12.0333 47.0933 12.03 47.1067 12.03 47.12V48.49C12.03 48.51 12.0333 48.5267 12.04 48.54C12.0533 48.5467 12.07 48.55 12.09 48.55ZM12.09 45.61H15.99C16.0033 45.61 16.0167 45.6067 16.03 45.6C16.0433 45.5867 16.05 45.5733 16.05 45.56V44.31C16.05 44.29 16.0433 44.2767 16.03 44.27C16.0167 44.2567 16.0033 44.25 15.99 44.25H12.09C12.07 44.25 12.0533 44.2567 12.04 44.27C12.0333 44.2767 12.03 44.29 12.03 44.31V45.56C12.03 45.5733 12.0333 45.5867 12.04 45.6C12.0533 45.6067 12.07 45.61 12.09 45.61ZM20.2403 50C19.987 50 19.7536 49.9367 19.5403 49.81C19.327 49.6767 19.1536 49.5033 19.0203 49.29C18.8936 49.0767 18.8303 48.8433 18.8303 48.59V45.61C18.8303 45.3567 18.8936 45.1233 19.0203 44.91C19.1536 44.6967 19.327 44.5267 19.5403 44.4C19.7536 44.2667 19.987 44.2 20.2403 44.2H23.3003C23.5603 44.2 23.797 44.2667 24.0103 44.4C24.2236 44.5267 24.3936 44.6967 24.5203 44.91C24.647 45.1233 24.7103 45.3567 24.7103 45.61V48.59C24.7103 48.8433 24.647 49.0767 24.5203 49.29C24.3936 49.5033 24.2236 49.6767 24.0103 49.81C23.797 49.9367 23.5603 50 23.3003 50H20.2403ZM20.3103 48.58H23.2303C23.2436 48.58 23.257 48.5733 23.2703 48.56C23.2836 48.5467 23.2903 48.5333 23.2903 48.52V45.68C23.2903 45.6667 23.2836 45.6533 23.2703 45.64C23.257 45.6267 23.2436 45.62 23.2303 45.62H20.3103C20.297 45.62 20.2836 45.6267 20.2703 45.64C20.257 45.6533 20.2503 45.6667 20.2503 45.68V48.52C20.2503 48.5333 20.257 48.5467 20.2703 48.56C20.2836 48.5733 20.297 48.58 20.3103 48.58ZM27.0086 50C26.7486 50 26.5119 49.9367 26.2986 49.81C26.0853 49.6767 25.9119 49.5033 25.7786 49.29C25.6519 49.0767 25.5886 48.8433 25.5886 48.59V42.45H27.0086V44.2H29.2186V45.62H27.0086V48.52C27.0086 48.5333 27.0153 48.5467 27.0286 48.56C27.0419 48.5733 27.0553 48.58 27.0686 48.58H29.2186V50H27.0086Z" fill="#090136"/>
<rect x="12" y="63" width="38" height="11" rx="3" fill="#00B4C2"/>
<rect x="12" y="119" width="52" height="11" rx="3" fill="#FF765A"/>
<path d="M18.297 55.121V55.639H16.176V57.284H17.898V57.802H16.176V60H15.539V55.121H18.297ZM19.3953 55.541C19.274 55.541 19.1713 55.499 19.0873 55.415C19.0033 55.331 18.9613 55.2283 18.9613 55.107C18.9613 54.9857 19.0033 54.883 19.0873 54.799C19.1713 54.715 19.274 54.673 19.3953 54.673C19.512 54.673 19.61 54.715 19.6893 54.799C19.7733 54.883 19.8153 54.9857 19.8153 55.107C19.8153 55.2283 19.7733 55.331 19.6893 55.415C19.61 55.499 19.512 55.541 19.3953 55.541ZM19.7033 56.164V60H19.0663V56.164H19.7033ZM22.658 56.094C23.1247 56.094 23.5027 56.2363 23.792 56.521C24.0813 56.801 24.226 57.207 24.226 57.739V60H23.596V57.83C23.596 57.4473 23.5003 57.1557 23.309 56.955C23.1177 56.7497 22.8563 56.647 22.525 56.647C22.189 56.647 21.9207 56.752 21.72 56.962C21.524 57.172 21.426 57.4777 21.426 57.879V60H20.789V56.164H21.426V56.71C21.552 56.514 21.7223 56.3623 21.937 56.255C22.1563 56.1477 22.3967 56.094 22.658 56.094ZM25.0285 58.068C25.0285 57.676 25.1079 57.333 25.2665 57.039C25.4252 56.7403 25.6422 56.5093 25.9175 56.346C26.1975 56.1827 26.5102 56.101 26.8555 56.101C27.1542 56.101 27.4319 56.171 27.6885 56.311C27.9452 56.4463 28.1412 56.626 28.2765 56.85V54.82H28.9205V60H28.2765V59.279C28.1505 59.5077 27.9639 59.6967 27.7165 59.846C27.4692 59.9907 27.1799 60.063 26.8485 60.063C26.5079 60.063 26.1975 59.979 25.9175 59.811C25.6422 59.643 25.4252 59.4073 25.2665 59.104C25.1079 58.8007 25.0285 58.4553 25.0285 58.068ZM28.2765 58.075C28.2765 57.7857 28.2182 57.5337 28.1015 57.319C27.9849 57.1043 27.8262 56.941 27.6255 56.829C27.4295 56.7123 27.2125 56.654 26.9745 56.654C26.7365 56.654 26.5195 56.71 26.3235 56.822C26.1275 56.934 25.9712 57.0973 25.8545 57.312C25.7379 57.5267 25.6795 57.7787 25.6795 58.068C25.6795 58.362 25.7379 58.6187 25.8545 58.838C25.9712 59.0527 26.1275 59.2183 26.3235 59.335C26.5195 59.447 26.7365 59.503 26.9745 59.503C27.2125 59.503 27.4295 59.447 27.6255 59.335C27.8262 59.2183 27.9849 59.0527 28.1015 58.838C28.2182 58.6187 28.2765 58.3643 28.2765 58.075ZM32.6402 56.689V58.95C32.6402 59.1367 32.6799 59.2697 32.7592 59.349C32.8386 59.4237 32.9762 59.461 33.1722 59.461H33.6412V60H33.0672C32.7126 60 32.4466 59.9183 32.2692 59.755C32.0919 59.5917 32.0032 59.3233 32.0032 58.95V56.689H31.5062V56.164H32.0032V55.198H32.6402V56.164H33.6412V56.689H32.6402ZM36.317 56.094C36.6064 56.094 36.8677 56.157 37.101 56.283C37.3344 56.4043 37.5164 56.5887 37.647 56.836C37.7824 57.0833 37.85 57.3843 37.85 57.739V60H37.22V57.83C37.22 57.4473 37.1244 57.1557 36.933 56.955C36.7417 56.7497 36.4804 56.647 36.149 56.647C35.813 56.647 35.5447 56.752 35.344 56.962C35.148 57.172 35.05 57.4777 35.05 57.879V60H34.413V54.82H35.05V56.71C35.176 56.514 35.3487 56.3623 35.568 56.255C35.792 56.1477 36.0417 56.094 36.317 56.094ZM42.3906 57.935C42.3906 58.0563 42.3836 58.1847 42.3696 58.32H39.3036C39.3269 58.698 39.4552 58.9943 39.6886 59.209C39.9266 59.419 40.2136 59.524 40.5496 59.524C40.8249 59.524 41.0536 59.461 41.2356 59.335C41.4222 59.2043 41.5529 59.0317 41.6276 58.817H42.3136C42.2109 59.1857 42.0056 59.4867 41.6976 59.72C41.3896 59.9487 41.0069 60.063 40.5496 60.063C40.1856 60.063 39.8589 59.9813 39.5696 59.818C39.2849 59.6547 39.0609 59.4237 38.8976 59.125C38.7342 58.8217 38.6526 58.4717 38.6526 58.075C38.6526 57.6783 38.7319 57.3307 38.8906 57.032C39.0492 56.7333 39.2709 56.5047 39.5556 56.346C39.8449 56.1827 40.1762 56.101 40.5496 56.101C40.9136 56.101 41.2356 56.1803 41.5156 56.339C41.7956 56.4977 42.0102 56.717 42.1596 56.997C42.3136 57.2723 42.3906 57.585 42.3906 57.935ZM41.7326 57.802C41.7326 57.5593 41.6789 57.3517 41.5716 57.179C41.4642 57.0017 41.3172 56.8687 41.1306 56.78C40.9486 56.6867 40.7456 56.64 40.5216 56.64C40.1996 56.64 39.9242 56.7427 39.6956 56.948C39.4716 57.1533 39.3432 57.438 39.3106 57.802H41.7326ZM45.7346 56.878C45.8653 56.6493 46.0566 56.4627 46.3086 56.318C46.5606 56.1733 46.8476 56.101 47.1696 56.101C47.5149 56.101 47.8253 56.1827 48.1006 56.346C48.3759 56.5093 48.5929 56.7403 48.7516 57.039C48.9103 57.333 48.9896 57.676 48.9896 58.068C48.9896 58.4553 48.9103 58.8007 48.7516 59.104C48.5929 59.4073 48.3736 59.643 48.0936 59.811C47.8183 59.979 47.5103 60.063 47.1696 60.063C46.8383 60.063 46.5466 59.9907 46.2946 59.846C46.0473 59.7013 45.8606 59.517 45.7346 59.293V60H45.0976V54.82H45.7346V56.878ZM48.3386 58.068C48.3386 57.7787 48.2803 57.5267 48.1636 57.312C48.0469 57.0973 47.8883 56.934 47.6876 56.822C47.4916 56.71 47.2746 56.654 47.0366 56.654C46.8033 56.654 46.5863 56.7123 46.3856 56.829C46.1896 56.941 46.0309 57.1067 45.9096 57.326C45.7929 57.5407 45.7346 57.7903 45.7346 58.075C45.7346 58.3643 45.7929 58.6187 45.9096 58.838C46.0309 59.0527 46.1896 59.2183 46.3856 59.335C46.5863 59.447 46.8033 59.503 47.0366 59.503C47.2746 59.503 47.4916 59.447 47.6876 59.335C47.8883 59.2183 48.0469 59.0527 48.1636 58.838C48.2803 58.6187 48.3386 58.362 48.3386 58.068ZM53.3281 57.935C53.3281 58.0563 53.3211 58.1847 53.3071 58.32H50.2411C50.2644 58.698 50.3927 58.9943 50.6261 59.209C50.8641 59.419 51.1511 59.524 51.4871 59.524C51.7624 59.524 51.9911 59.461 52.1731 59.335C52.3597 59.2043 52.4904 59.0317 52.5651 58.817H53.2511C53.1484 59.1857 52.9431 59.4867 52.6351 59.72C52.3271 59.9487 51.9444 60.063 51.4871 60.063C51.1231 60.063 50.7964 59.9813 50.5071 59.818C50.2224 59.6547 49.9984 59.4237 49.8351 59.125C49.6717 58.8217 49.5901 58.4717 49.5901 58.075C49.5901 57.6783 49.6694 57.3307 49.8281 57.032C49.9867 56.7333 50.2084 56.5047 50.4931 56.346C50.7824 56.1827 51.1137 56.101 51.4871 56.101C51.8511 56.101 52.1731 56.1803 52.4531 56.339C52.7331 56.4977 52.9477 56.717 53.0971 56.997C53.2511 57.2723 53.3281 57.585 53.3281 57.935ZM52.6701 57.802C52.6701 57.5593 52.6164 57.3517 52.5091 57.179C52.4017 57.0017 52.2547 56.8687 52.0681 56.78C51.8861 56.6867 51.6831 56.64 51.4591 56.64C51.1371 56.64 50.8617 56.7427 50.6331 56.948C50.4091 57.1533 50.2807 57.438 50.2481 57.802H52.6701ZM55.5269 60.063C55.2329 60.063 54.9692 60.014 54.7359 59.916C54.5025 59.8133 54.3182 59.6733 54.1829 59.496C54.0475 59.314 53.9729 59.1063 53.9589 58.873H54.6169C54.6355 59.0643 54.7242 59.2207 54.8829 59.342C55.0462 59.4633 55.2585 59.524 55.5199 59.524C55.7625 59.524 55.9539 59.4703 56.0939 59.363C56.2339 59.2557 56.3039 59.1203 56.3039 58.957C56.3039 58.789 56.2292 58.6653 56.0799 58.586C55.9305 58.502 55.6995 58.4203 55.3869 58.341C55.1022 58.2663 54.8689 58.1917 54.6869 58.117C54.5095 58.0377 54.3555 57.9233 54.2249 57.774C54.0989 57.62 54.0359 57.4193 54.0359 57.172C54.0359 56.976 54.0942 56.7963 54.2109 56.633C54.3275 56.4697 54.4932 56.3413 54.7079 56.248C54.9225 56.15 55.1675 56.101 55.4429 56.101C55.8675 56.101 56.2105 56.2083 56.4719 56.423C56.7332 56.6377 56.8732 56.9317 56.8919 57.305H56.2549C56.2409 57.1043 56.1592 56.9433 56.0099 56.822C55.8652 56.7007 55.6692 56.64 55.4219 56.64C55.1932 56.64 55.0112 56.689 54.8759 56.787C54.7405 56.885 54.6729 57.0133 54.6729 57.172C54.6729 57.298 54.7125 57.403 54.7919 57.487C54.8759 57.5663 54.9785 57.6317 55.0999 57.683C55.2259 57.7297 55.3985 57.7833 55.6179 57.844C55.8932 57.9187 56.1172 57.9933 56.2899 58.068C56.4625 58.138 56.6095 58.2453 56.7309 58.39C56.8569 58.5347 56.9222 58.7237 56.9269 58.957C56.9269 59.167 56.8685 59.356 56.7519 59.524C56.6352 59.692 56.4695 59.825 56.2549 59.923C56.0449 60.0163 55.8022 60.063 55.5269 60.063ZM58.6031 56.689V58.95C58.6031 59.1367 58.6428 59.2697 58.7221 59.349C58.8014 59.4237 58.9391 59.461 59.1351 59.461H59.6041V60H59.0301C58.6754 60 58.4094 59.9183 58.2321 59.755C58.0548 59.5917 57.9661 59.3233 57.9661 58.95V56.689H57.4691V56.164H57.9661V55.198H58.6031V56.164H59.6041V56.689H58.6031ZM62.0041 58.075C62.0041 57.6783 62.0835 57.333 62.2421 57.039C62.4008 56.7403 62.6201 56.5093 62.9001 56.346C63.1848 56.1827 63.5091 56.101 63.8731 56.101C64.3445 56.101 64.7318 56.2153 65.0351 56.444C65.3431 56.6727 65.5461 56.99 65.6441 57.396H64.9581C64.8928 57.1627 64.7645 56.9783 64.5731 56.843C64.3865 56.7077 64.1531 56.64 63.8731 56.64C63.5091 56.64 63.2151 56.766 62.9911 57.018C62.7671 57.2653 62.6551 57.6177 62.6551 58.075C62.6551 58.537 62.7671 58.894 62.9911 59.146C63.2151 59.398 63.5091 59.524 63.8731 59.524C64.1531 59.524 64.3865 59.4587 64.5731 59.328C64.7598 59.1973 64.8881 59.0107 64.9581 58.768H65.6441C65.5415 59.16 65.3361 59.475 65.0281 59.713C64.7201 59.9463 64.3351 60.063 63.8731 60.063C63.5091 60.063 63.1848 59.9813 62.9001 59.818C62.6201 59.6547 62.4008 59.4237 62.2421 59.125C62.0835 58.8263 62.0041 58.4763 62.0041 58.075ZM68.1671 60.063C67.8077 60.063 67.4811 59.9813 67.1871 59.818C66.8977 59.6547 66.6691 59.4237 66.5011 59.125C66.3377 58.8217 66.2561 58.4717 66.2561 58.075C66.2561 57.683 66.3401 57.3377 66.5081 57.039C66.6807 56.7357 66.9141 56.5047 67.2081 56.346C67.5021 56.1827 67.8311 56.101 68.1951 56.101C68.5591 56.101 68.8881 56.1827 69.1821 56.346C69.4761 56.5047 69.7071 56.7333 69.8751 57.032C70.0477 57.3307 70.1341 57.6783 70.1341 58.075C70.1341 58.4717 70.0454 58.8217 69.8681 59.125C69.6954 59.4237 69.4597 59.6547 69.1611 59.818C68.8624 59.9813 68.5311 60.063 68.1671 60.063ZM68.1671 59.503C68.3957 59.503 68.6104 59.4493 68.8111 59.342C69.0117 59.2347 69.1727 59.0737 69.2941 58.859C69.4201 58.6443 69.4831 58.383 69.4831 58.075C69.4831 57.767 69.4224 57.5057 69.3011 57.291C69.1797 57.0763 69.0211 56.9177 68.8251 56.815C68.6291 56.7077 68.4167 56.654 68.1881 56.654C67.9547 56.654 67.7401 56.7077 67.5441 56.815C67.3527 56.9177 67.1987 57.0763 67.0821 57.291C66.9654 57.5057 66.9071 57.767 66.9071 58.075C66.9071 58.3877 66.9631 58.6513 67.0751 58.866C67.1917 59.0807 67.3457 59.2417 67.5371 59.349C67.7284 59.4517 67.9384 59.503 68.1671 59.503ZM71.3006 55.541C71.1793 55.541 71.0766 55.499 70.9926 55.415C70.9086 55.331 70.8666 55.2283 70.8666 55.107C70.8666 54.9857 70.9086 54.883 70.9926 54.799C71.0766 54.715 71.1793 54.673 71.3006 54.673C71.4173 54.673 71.5153 54.715 71.5946 54.799C71.6786 54.883 71.7206 54.9857 71.7206 55.107C71.7206 55.2283 71.6786 55.331 71.5946 55.415C71.5153 55.499 71.4173 55.541 71.3006 55.541ZM71.6086 56.164V60H70.9716V56.164H71.6086ZM74.5633 56.094C75.0299 56.094 75.4079 56.2363 75.6973 56.521C75.9866 56.801 76.1313 57.207 76.1313 57.739V60H75.5013V57.83C75.5013 57.4473 75.4056 57.1557 75.2143 56.955C75.0229 56.7497 74.7616 56.647 74.4303 56.647C74.0943 56.647 73.8259 56.752 73.6253 56.962C73.4293 57.172 73.3313 57.4777 73.3313 57.879V60H72.6943V56.164H73.3313V56.71C73.4573 56.514 73.6276 56.3623 73.8423 56.255C74.0616 56.1477 74.3019 56.094 74.5633 56.094ZM18.185 82L16.176 79.774V82H15.539V77.121H16.176V79.382L18.192 77.121H18.997L16.785 79.564L19.018 82H18.185ZM23.2294 79.935C23.2294 80.0563 23.2224 80.1847 23.2084 80.32H20.1424C20.1658 80.698 20.2941 80.9943 20.5274 81.209C20.7654 81.419 21.0524 81.524 21.3884 81.524C21.6638 81.524 21.8924 81.461 22.0744 81.335C22.2611 81.2043 22.3918 81.0317 22.4664 80.817H23.1524C23.0498 81.1857 22.8444 81.4867 22.5364 81.72C22.2284 81.9487 21.8458 82.063 21.3884 82.063C21.0244 82.063 20.6978 81.9813 20.4084 81.818C20.1238 81.6547 19.8998 81.4237 19.7364 81.125C19.5731 80.8217 19.4914 80.4717 19.4914 80.075C19.4914 79.6783 19.5708 79.3307 19.7294 79.032C19.8881 78.7333 20.1098 78.5047 20.3944 78.346C20.6838 78.1827 21.0151 78.101 21.3884 78.101C21.7524 78.101 22.0744 78.1803 22.3544 78.339C22.6344 78.4977 22.8491 78.717 22.9984 78.997C23.1524 79.2723 23.2294 79.585 23.2294 79.935ZM22.5714 79.802C22.5714 79.5593 22.5178 79.3517 22.4104 79.179C22.3031 79.0017 22.1561 78.8687 21.9694 78.78C21.7874 78.6867 21.5844 78.64 21.3604 78.64C21.0384 78.64 20.7631 78.7427 20.5344 78.948C20.3104 79.1533 20.1821 79.438 20.1494 79.802H22.5714ZM27.5703 79.935C27.5703 80.0563 27.5633 80.1847 27.5493 80.32H24.4833C24.5066 80.698 24.6349 80.9943 24.8683 81.209C25.1063 81.419 25.3933 81.524 25.7293 81.524C26.0046 81.524 26.2333 81.461 26.4153 81.335C26.6019 81.2043 26.7326 81.0317 26.8073 80.817H27.4933C27.3906 81.1857 27.1853 81.4867 26.8773 81.72C26.5693 81.9487 26.1866 82.063 25.7293 82.063C25.3653 82.063 25.0386 81.9813 24.7493 81.818C24.4646 81.6547 24.2406 81.4237 24.0773 81.125C23.9139 80.8217 23.8323 80.4717 23.8323 80.075C23.8323 79.6783 23.9116 79.3307 24.0703 79.032C24.2289 78.7333 24.4506 78.5047 24.7353 78.346C25.0246 78.1827 25.3559 78.101 25.7293 78.101C26.0933 78.101 26.4153 78.1803 26.6953 78.339C26.9753 78.4977 27.1899 78.717 27.3393 78.997C27.4933 79.2723 27.5703 79.585 27.5703 79.935ZM26.9123 79.802C26.9123 79.5593 26.8586 79.3517 26.7513 79.179C26.6439 79.0017 26.4969 78.8687 26.3103 78.78C26.1283 78.6867 25.9253 78.64 25.7013 78.64C25.3793 78.64 25.1039 78.7427 24.8753 78.948C24.6513 79.1533 24.5229 79.438 24.4903 79.802H26.9123ZM29.0481 78.871C29.1741 78.6517 29.3607 78.4697 29.6081 78.325C29.8601 78.1757 30.1517 78.101 30.4831 78.101C30.8237 78.101 31.1317 78.1827 31.4071 78.346C31.6871 78.5093 31.9064 78.7403 32.0651 79.039C32.2237 79.333 32.3031 79.676 32.3031 80.068C32.3031 80.4553 32.2237 80.8007 32.0651 81.104C31.9064 81.4073 31.6871 81.643 31.4071 81.811C31.1317 81.979 30.8237 82.063 30.4831 82.063C30.1564 82.063 29.8671 81.9907 29.6151 81.846C29.3677 81.6967 29.1787 81.5123 29.0481 81.293V83.82H28.4111V78.164H29.0481V78.871ZM31.6521 80.068C31.6521 79.7787 31.5937 79.5267 31.4771 79.312C31.3604 79.0973 31.2017 78.934 31.0011 78.822C30.8051 78.71 30.5881 78.654 30.3501 78.654C30.1167 78.654 29.8997 78.7123 29.6991 78.829C29.5031 78.941 29.3444 79.1067 29.2231 79.326C29.1064 79.5407 29.0481 79.7903 29.0481 80.075C29.0481 80.3643 29.1064 80.6187 29.2231 80.838C29.3444 81.0527 29.5031 81.2183 29.6991 81.335C29.8997 81.447 30.1167 81.503 30.3501 81.503C30.5881 81.503 30.8051 81.447 31.0011 81.335C31.2017 81.2183 31.3604 81.0527 31.4771 80.838C31.5937 80.6187 31.6521 80.362 31.6521 80.068ZM34.7698 80.068C34.7698 79.676 34.8491 79.333 35.0078 79.039C35.1664 78.7403 35.3834 78.5093 35.6588 78.346C35.9388 78.1827 36.2491 78.101 36.5898 78.101C36.9258 78.101 37.2174 78.1733 37.4648 78.318C37.7121 78.4627 37.8964 78.6447 38.0178 78.864V78.164H38.6618V82H38.0178V81.286C37.8918 81.51 37.7028 81.6967 37.4508 81.846C37.2034 81.9907 36.9141 82.063 36.5828 82.063C36.2421 82.063 35.9341 81.979 35.6588 81.811C35.3834 81.643 35.1664 81.4073 35.0078 81.104C34.8491 80.8007 34.7698 80.4553 34.7698 80.068ZM38.0178 80.075C38.0178 79.7857 37.9594 79.5337 37.8428 79.319C37.7261 79.1043 37.5674 78.941 37.3668 78.829C37.1708 78.7123 36.9538 78.654 36.7158 78.654C36.4778 78.654 36.2608 78.71 36.0648 78.822C35.8688 78.934 35.7124 79.0973 35.5958 79.312C35.4791 79.5267 35.4208 79.7787 35.4208 80.068C35.4208 80.362 35.4791 80.6187 35.5958 80.838C35.7124 81.0527 35.8688 81.2183 36.0648 81.335C36.2608 81.447 36.4778 81.503 36.7158 81.503C36.9538 81.503 37.1708 81.447 37.3668 81.335C37.5674 81.2183 37.7261 81.0527 37.8428 80.838C37.9594 80.6187 38.0178 80.3643 38.0178 80.075ZM41.6072 78.094C42.0739 78.094 42.4519 78.2363 42.7412 78.521C43.0306 78.801 43.1752 79.207 43.1752 79.739V82H42.5452V79.83C42.5452 79.4473 42.4496 79.1557 42.2582 78.955C42.0669 78.7497 41.8056 78.647 41.4742 78.647C41.1382 78.647 40.8699 78.752 40.6692 78.962C40.4732 79.172 40.3752 79.4777 40.3752 79.879V82H39.7382V78.164H40.3752V78.71C40.5012 78.514 40.6716 78.3623 40.8862 78.255C41.1056 78.1477 41.3459 78.094 41.6072 78.094ZM49.582 79.935C49.582 80.0563 49.575 80.1847 49.561 80.32H46.495C46.5183 80.698 46.6466 80.9943 46.88 81.209C47.118 81.419 47.405 81.524 47.741 81.524C48.0163 81.524 48.245 81.461 48.427 81.335C48.6136 81.2043 48.7443 81.0317 48.819 80.817H49.505C49.4023 81.1857 49.197 81.4867 48.889 81.72C48.581 81.9487 48.1983 82.063 47.741 82.063C47.377 82.063 47.0503 81.9813 46.761 81.818C46.4763 81.6547 46.2523 81.4237 46.089 81.125C45.9256 80.8217 45.844 80.4717 45.844 80.075C45.844 79.6783 45.9233 79.3307 46.082 79.032C46.2406 78.7333 46.4623 78.5047 46.747 78.346C47.0363 78.1827 47.3676 78.101 47.741 78.101C48.105 78.101 48.427 78.1803 48.707 78.339C48.987 78.4977 49.2016 78.717 49.351 78.997C49.505 79.2723 49.582 79.585 49.582 79.935ZM48.924 79.802C48.924 79.5593 48.8703 79.3517 48.763 79.179C48.6556 79.0017 48.5086 78.8687 48.322 78.78C48.14 78.6867 47.937 78.64 47.713 78.64C47.391 78.64 47.1156 78.7427 46.887 78.948C46.663 79.1533 46.5346 79.438 46.502 79.802H48.924ZM53.7268 78.164L51.4168 83.806H50.7588L51.5148 81.958L49.9678 78.164H50.6748L51.8788 81.272L53.0688 78.164H53.7268ZM57.8671 79.935C57.8671 80.0563 57.8601 80.1847 57.8461 80.32H54.7801C54.8035 80.698 54.9318 80.9943 55.1651 81.209C55.4031 81.419 55.6901 81.524 56.0261 81.524C56.3015 81.524 56.5301 81.461 56.7121 81.335C56.8988 81.2043 57.0295 81.0317 57.1041 80.817H57.7901C57.6875 81.1857 57.4821 81.4867 57.1741 81.72C56.8661 81.9487 56.4835 82.063 56.0261 82.063C55.6621 82.063 55.3355 81.9813 55.0461 81.818C54.7615 81.6547 54.5375 81.4237 54.3741 81.125C54.2108 80.8217 54.1291 80.4717 54.1291 80.075C54.1291 79.6783 54.2085 79.3307 54.3671 79.032C54.5258 78.7333 54.7475 78.5047 55.0321 78.346C55.3215 78.1827 55.6528 78.101 56.0261 78.101C56.3901 78.101 56.7121 78.1803 56.9921 78.339C57.2721 78.4977 57.4868 78.717 57.6361 78.997C57.7901 79.2723 57.8671 79.585 57.8671 79.935ZM57.2091 79.802C57.2091 79.5593 57.1555 79.3517 57.0481 79.179C56.9408 79.0017 56.7938 78.8687 56.6071 78.78C56.4251 78.6867 56.2221 78.64 55.9981 78.64C55.6761 78.64 55.4008 78.7427 55.1721 78.948C54.9481 79.1533 54.8198 79.438 54.7871 79.802H57.2091ZM62.2472 82.063C61.8878 82.063 61.5612 81.9813 61.2672 81.818C60.9778 81.6547 60.7492 81.4237 60.5812 81.125C60.4178 80.8217 60.3362 80.4717 60.3362 80.075C60.3362 79.683 60.4202 79.3377 60.5882 79.039C60.7608 78.7357 60.9942 78.5047 61.2882 78.346C61.5822 78.1827 61.9112 78.101 62.2752 78.101C62.6392 78.101 62.9682 78.1827 63.2622 78.346C63.5562 78.5047 63.7872 78.7333 63.9552 79.032C64.1278 79.3307 64.2142 79.6783 64.2142 80.075C64.2142 80.4717 64.1255 80.8217 63.9482 81.125C63.7755 81.4237 63.5398 81.6547 63.2412 81.818C62.9425 81.9813 62.6112 82.063 62.2472 82.063ZM62.2472 81.503C62.4758 81.503 62.6905 81.4493 62.8912 81.342C63.0918 81.2347 63.2528 81.0737 63.3742 80.859C63.5002 80.6443 63.5632 80.383 63.5632 80.075C63.5632 79.767 63.5025 79.5057 63.3812 79.291C63.2598 79.0763 63.1012 78.9177 62.9052 78.815C62.7092 78.7077 62.4968 78.654 62.2682 78.654C62.0348 78.654 61.8202 78.7077 61.6242 78.815C61.4328 78.9177 61.2788 79.0763 61.1622 79.291C61.0455 79.5057 60.9872 79.767 60.9872 80.075C60.9872 80.3877 61.0432 80.6513 61.1552 80.866C61.2718 81.0807 61.4258 81.2417 61.6172 81.349C61.8085 81.4517 62.0185 81.503 62.2472 81.503ZM66.9207 78.094C67.3874 78.094 67.7654 78.2363 68.0547 78.521C68.344 78.801 68.4887 79.207 68.4887 79.739V82H67.8587V79.83C67.8587 79.4473 67.763 79.1557 67.5717 78.955C67.3804 78.7497 67.119 78.647 66.7877 78.647C66.4517 78.647 66.1834 78.752 65.9827 78.962C65.7867 79.172 65.6887 79.4777 65.6887 79.879V82H65.0517V78.164H65.6887V78.71C65.8147 78.514 65.985 78.3623 66.1997 78.255C66.419 78.1477 66.6594 78.094 66.9207 78.094ZM74.6994 78.164L72.3894 83.806H71.7314L72.4874 81.958L70.9404 78.164H71.6474L72.8514 81.272L74.0414 78.164H74.6994ZM77.0128 82.063C76.6534 82.063 76.3268 81.9813 76.0328 81.818C75.7434 81.6547 75.5148 81.4237 75.3468 81.125C75.1834 80.8217 75.1018 80.4717 75.1018 80.075C75.1018 79.683 75.1858 79.3377 75.3538 79.039C75.5264 78.7357 75.7598 78.5047 76.0538 78.346C76.3478 78.1827 76.6768 78.101 77.0408 78.101C77.4048 78.101 77.7338 78.1827 78.0278 78.346C78.3218 78.5047 78.5528 78.7333 78.7208 79.032C78.8934 79.3307 78.9798 79.6783 78.9798 80.075C78.9798 80.4717 78.8911 80.8217 78.7138 81.125C78.5411 81.4237 78.3054 81.6547 78.0068 81.818C77.7081 81.9813 77.3768 82.063 77.0128 82.063ZM77.0128 81.503C77.2414 81.503 77.4561 81.4493 77.6568 81.342C77.8574 81.2347 78.0184 81.0737 78.1398 80.859C78.2658 80.6443 78.3288 80.383 78.3288 80.075C78.3288 79.767 78.2681 79.5057 78.1468 79.291C78.0254 79.0763 77.8668 78.9177 77.6708 78.815C77.4748 78.7077 77.2624 78.654 77.0338 78.654C76.8004 78.654 76.5858 78.7077 76.3898 78.815C76.1984 78.9177 76.0444 79.0763 75.9278 79.291C75.8111 79.5057 75.7528 79.767 75.7528 80.075C75.7528 80.3877 75.8088 80.6513 75.9208 80.866C76.0374 81.0807 76.1914 81.2417 76.3828 81.349C76.5741 81.4517 76.7841 81.503 77.0128 81.503ZM83.2193 78.164V82H82.5823V81.433C82.461 81.629 82.2907 81.783 82.0713 81.895C81.8567 82.0023 81.6187 82.056 81.3573 82.056C81.0587 82.056 80.7903 81.9953 80.5523 81.874C80.3143 81.748 80.1253 81.5613 79.9853 81.314C79.85 81.0667 79.7823 80.7657 79.7823 80.411V78.164H80.4123V80.327C80.4123 80.705 80.508 80.9967 80.6993 81.202C80.8907 81.4027 81.152 81.503 81.4833 81.503C81.824 81.503 82.0923 81.398 82.2883 81.188C82.4843 80.978 82.5823 80.6723 82.5823 80.271V78.164H83.2193ZM84.9319 78.787C85.0439 78.5677 85.2025 78.3973 85.4079 78.276C85.6179 78.1547 85.8722 78.094 86.1709 78.094V78.752H86.0029C85.2889 78.752 84.9319 79.1393 84.9319 79.914V82H84.2949V78.164H84.9319V78.787ZM16.176 89.871C16.302 89.6517 16.4887 89.4697 16.736 89.325C16.988 89.1757 17.2797 89.101 17.611 89.101C17.9517 89.101 18.2597 89.1827 18.535 89.346C18.815 89.5093 19.0343 89.7403 19.193 90.039C19.3517 90.333 19.431 90.676 19.431 91.068C19.431 91.4553 19.3517 91.8007 19.193 92.104C19.0343 92.4073 18.815 92.643 18.535 92.811C18.2597 92.979 17.9517 93.063 17.611 93.063C17.2843 93.063 16.995 92.9907 16.743 92.846C16.4957 92.6967 16.3067 92.5123 16.176 92.293V94.82H15.539V89.164H16.176V89.871ZM18.78 91.068C18.78 90.7787 18.7217 90.5267 18.605 90.312C18.4883 90.0973 18.3297 89.934 18.129 89.822C17.933 89.71 17.716 89.654 17.478 89.654C17.2447 89.654 17.0277 89.7123 16.827 89.829C16.631 89.941 16.4723 90.1067 16.351 90.326C16.2343 90.5407 16.176 90.7903 16.176 91.075C16.176 91.3643 16.2343 91.6187 16.351 91.838C16.4723 92.0527 16.631 92.2183 16.827 92.335C17.0277 92.447 17.2447 92.503 17.478 92.503C17.716 92.503 17.933 92.447 18.129 92.335C18.3297 92.2183 18.4883 92.0527 18.605 91.838C18.7217 91.6187 18.78 91.362 18.78 91.068ZM21.9425 93.063C21.5831 93.063 21.2565 92.9813 20.9625 92.818C20.6731 92.6547 20.4445 92.4237 20.2765 92.125C20.1131 91.8217 20.0315 91.4717 20.0315 91.075C20.0315 90.683 20.1155 90.3377 20.2835 90.039C20.4561 89.7357 20.6895 89.5047 20.9835 89.346C21.2775 89.1827 21.6065 89.101 21.9705 89.101C22.3345 89.101 22.6635 89.1827 22.9575 89.346C23.2515 89.5047 23.4825 89.7333 23.6505 90.032C23.8231 90.3307 23.9095 90.6783 23.9095 91.075C23.9095 91.4717 23.8208 91.8217 23.6435 92.125C23.4708 92.4237 23.2351 92.6547 22.9365 92.818C22.6378 92.9813 22.3065 93.063 21.9425 93.063ZM21.9425 92.503C22.1711 92.503 22.3858 92.4493 22.5865 92.342C22.7871 92.2347 22.9481 92.0737 23.0695 91.859C23.1955 91.6443 23.2585 91.383 23.2585 91.075C23.2585 90.767 23.1978 90.5057 23.0765 90.291C22.9551 90.0763 22.7965 89.9177 22.6005 89.815C22.4045 89.7077 22.1921 89.654 21.9635 89.654C21.7301 89.654 21.5155 89.7077 21.3195 89.815C21.1281 89.9177 20.9741 90.0763 20.8575 90.291C20.7408 90.5057 20.6825 90.767 20.6825 91.075C20.6825 91.3877 20.7385 91.6513 20.8505 91.866C20.9671 92.0807 21.1211 92.2417 21.3125 92.349C21.5038 92.4517 21.7138 92.503 21.9425 92.503ZM25.384 89.787C25.496 89.5677 25.6547 89.3973 25.86 89.276C26.07 89.1547 26.3243 89.094 26.623 89.094V89.752H26.455C25.741 89.752 25.384 90.1393 25.384 90.914V93H24.747V89.164H25.384V89.787ZM28.1353 89.689V91.95C28.1353 92.1367 28.175 92.2697 28.2543 92.349C28.3337 92.4237 28.4713 92.461 28.6673 92.461H29.1363V93H28.5623C28.2077 93 27.9417 92.9183 27.7643 92.755C27.587 92.5917 27.4983 92.3233 27.4983 91.95V89.689H27.0013V89.164H27.4983V88.198H28.1353V89.164H29.1363V89.689H28.1353ZM31.4691 89.689H30.6641V93H30.0271V89.689H29.5301V89.164H30.0271V88.891C30.0271 88.4617 30.1368 88.149 30.3561 87.953C30.5801 87.7523 30.9371 87.652 31.4271 87.652V88.184C31.1471 88.184 30.9488 88.24 30.8321 88.352C30.7201 88.4593 30.6641 88.639 30.6641 88.891V89.164H31.4691V89.689ZM33.8849 93.063C33.5255 93.063 33.1989 92.9813 32.9049 92.818C32.6155 92.6547 32.3869 92.4237 32.2189 92.125C32.0555 91.8217 31.9739 91.4717 31.9739 91.075C31.9739 90.683 32.0579 90.3377 32.2259 90.039C32.3985 89.7357 32.6319 89.5047 32.9259 89.346C33.2199 89.1827 33.5489 89.101 33.9129 89.101C34.2769 89.101 34.6059 89.1827 34.8999 89.346C35.1939 89.5047 35.4249 89.7333 35.5929 90.032C35.7655 90.3307 35.8519 90.6783 35.8519 91.075C35.8519 91.4717 35.7632 91.8217 35.5859 92.125C35.4132 92.4237 35.1775 92.6547 34.8789 92.818C34.5802 92.9813 34.2489 93.063 33.8849 93.063ZM33.8849 92.503C34.1135 92.503 34.3282 92.4493 34.5289 92.342C34.7295 92.2347 34.8905 92.0737 35.0119 91.859C35.1379 91.6443 35.2009 91.383 35.2009 91.075C35.2009 90.767 35.1402 90.5057 35.0189 90.291C34.8975 90.0763 34.7389 89.9177 34.5429 89.815C34.3469 89.7077 34.1345 89.654 33.9059 89.654C33.6725 89.654 33.4579 89.7077 33.2619 89.815C33.0705 89.9177 32.9165 90.0763 32.7999 90.291C32.6832 90.5057 32.6249 90.767 32.6249 91.075C32.6249 91.3877 32.6809 91.6513 32.7929 91.866C32.9095 92.0807 33.0635 92.2417 33.2549 92.349C33.4462 92.4517 33.6562 92.503 33.8849 92.503ZM37.3264 87.82V93H36.6894V87.82H37.3264ZM38.741 88.541C38.6197 88.541 38.517 88.499 38.433 88.415C38.349 88.331 38.307 88.2283 38.307 88.107C38.307 87.9857 38.349 87.883 38.433 87.799C38.517 87.715 38.6197 87.673 38.741 87.673C38.8577 87.673 38.9557 87.715 39.035 87.799C39.119 87.883 39.161 87.9857 39.161 88.107C39.161 88.2283 39.119 88.331 39.035 88.415C38.9557 88.499 38.8577 88.541 38.741 88.541ZM39.049 89.164V93H38.412V89.164H39.049ZM41.8077 93.063C41.4484 93.063 41.1217 92.9813 40.8277 92.818C40.5384 92.6547 40.3097 92.4237 40.1417 92.125C39.9784 91.8217 39.8967 91.4717 39.8967 91.075C39.8967 90.683 39.9807 90.3377 40.1487 90.039C40.3214 89.7357 40.5547 89.5047 40.8487 89.346C41.1427 89.1827 41.4717 89.101 41.8357 89.101C42.1997 89.101 42.5287 89.1827 42.8227 89.346C43.1167 89.5047 43.3477 89.7333 43.5157 90.032C43.6884 90.3307 43.7747 90.6783 43.7747 91.075C43.7747 91.4717 43.686 91.8217 43.5087 92.125C43.336 92.4237 43.1004 92.6547 42.8017 92.818C42.503 92.9813 42.1717 93.063 41.8077 93.063ZM41.8077 92.503C42.0364 92.503 42.251 92.4493 42.4517 92.342C42.6524 92.2347 42.8134 92.0737 42.9347 91.859C43.0607 91.6443 43.1237 91.383 43.1237 91.075C43.1237 90.767 43.063 90.5057 42.9417 90.291C42.8204 90.0763 42.6617 89.9177 42.4657 89.815C42.2697 89.7077 42.0574 89.654 41.8287 89.654C41.5954 89.654 41.3807 89.7077 41.1847 89.815C40.9934 89.9177 40.8394 90.0763 40.7227 90.291C40.606 90.5057 40.5477 90.767 40.5477 91.075C40.5477 91.3877 40.6037 91.6513 40.7157 91.866C40.8324 92.0807 40.9864 92.2417 41.1777 92.349C41.369 92.4517 41.579 92.503 41.8077 92.503ZM17.982 101.487C18.1593 101.515 18.3203 101.587 18.465 101.704C18.6143 101.821 18.731 101.965 18.815 102.138C18.9037 102.311 18.948 102.495 18.948 102.691C18.948 102.938 18.885 103.162 18.759 103.363C18.633 103.559 18.4487 103.715 18.206 103.832C17.968 103.944 17.6857 104 17.359 104H15.539V99.121H17.289C17.6203 99.121 17.9027 99.177 18.136 99.289C18.3693 99.3963 18.5443 99.5433 18.661 99.73C18.7777 99.9167 18.836 100.127 18.836 100.36C18.836 100.649 18.7567 100.89 18.598 101.081C18.444 101.268 18.2387 101.403 17.982 101.487ZM16.176 101.228H17.247C17.5457 101.228 17.7767 101.158 17.94 101.018C18.1033 100.878 18.185 100.684 18.185 100.437C18.185 100.19 18.1033 99.996 17.94 99.856C17.7767 99.716 17.541 99.646 17.233 99.646H16.176V101.228ZM17.303 103.475C17.6203 103.475 17.8677 103.4 18.045 103.251C18.2223 103.102 18.311 102.894 18.311 102.628C18.311 102.357 18.2177 102.145 18.031 101.991C17.8443 101.832 17.5947 101.753 17.282 101.753H16.176V103.475H17.303ZM23.332 101.935C23.332 102.056 23.325 102.185 23.311 102.32H20.245C20.2683 102.698 20.3966 102.994 20.63 103.209C20.868 103.419 21.155 103.524 21.491 103.524C21.7663 103.524 21.995 103.461 22.177 103.335C22.3636 103.204 22.4943 103.032 22.569 102.817H23.255C23.1523 103.186 22.947 103.487 22.639 103.72C22.331 103.949 21.9483 104.063 21.491 104.063C21.127 104.063 20.8003 103.981 20.511 103.818C20.2263 103.655 20.0023 103.424 19.839 103.125C19.6756 102.822 19.594 102.472 19.594 102.075C19.594 101.678 19.6733 101.331 19.832 101.032C19.9906 100.733 20.2123 100.505 20.497 100.346C20.7863 100.183 21.1176 100.101 21.491 100.101C21.855 100.101 22.177 100.18 22.457 100.339C22.737 100.498 22.9516 100.717 23.101 100.997C23.255 101.272 23.332 101.585 23.332 101.935ZM22.674 101.802C22.674 101.559 22.6203 101.352 22.513 101.179C22.4056 101.002 22.2586 100.869 22.072 100.78C21.89 100.687 21.687 100.64 21.463 100.64C21.141 100.64 20.8656 100.743 20.637 100.948C20.413 101.153 20.2846 101.438 20.252 101.802H22.674ZM26.676 100.787C26.788 100.568 26.9467 100.397 27.152 100.276C27.362 100.155 27.6163 100.094 27.915 100.094V100.752H27.747C27.033 100.752 26.676 101.139 26.676 101.914V104H26.039V100.164H26.676V100.787ZM32.1503 101.935C32.1503 102.056 32.1433 102.185 32.1293 102.32H29.0633C29.0867 102.698 29.215 102.994 29.4483 103.209C29.6863 103.419 29.9733 103.524 30.3093 103.524C30.5847 103.524 30.8133 103.461 30.9953 103.335C31.182 103.204 31.3127 103.032 31.3873 102.817H32.0733C31.9707 103.186 31.7653 103.487 31.4573 103.72C31.1493 103.949 30.7667 104.063 30.3093 104.063C29.9453 104.063 29.6187 103.981 29.3293 103.818C29.0447 103.655 28.8207 103.424 28.6573 103.125C28.494 102.822 28.4123 102.472 28.4123 102.075C28.4123 101.678 28.4917 101.331 28.6503 101.032C28.809 100.733 29.0307 100.505 29.3153 100.346C29.6047 100.183 29.936 100.101 30.3093 100.101C30.6733 100.101 30.9953 100.18 31.2753 100.339C31.5553 100.498 31.77 100.717 31.9193 100.997C32.0733 101.272 32.1503 101.585 32.1503 101.935ZM31.4923 101.802C31.4923 101.559 31.4387 101.352 31.3313 101.179C31.224 101.002 31.077 100.869 30.8903 100.78C30.7083 100.687 30.5053 100.64 30.2813 100.64C29.9593 100.64 29.684 100.743 29.4553 100.948C29.2313 101.153 29.103 101.438 29.0703 101.802H31.4923ZM34.5731 100.101C34.9045 100.101 35.1938 100.173 35.4411 100.318C35.6931 100.463 35.8798 100.645 36.0011 100.864V100.164H36.6451V104.084C36.6451 104.434 36.5705 104.744 36.4211 105.015C36.2718 105.29 36.0571 105.505 35.7771 105.659C35.5018 105.813 35.1798 105.89 34.8111 105.89C34.3071 105.89 33.8871 105.771 33.5511 105.533C33.2151 105.295 33.0168 104.971 32.9561 104.56H33.5861C33.6561 104.793 33.8008 104.98 34.0201 105.12C34.2395 105.265 34.5031 105.337 34.8111 105.337C35.1611 105.337 35.4458 105.227 35.6651 105.008C35.8891 104.789 36.0011 104.481 36.0011 104.084V103.279C35.8751 103.503 35.6885 103.69 35.4411 103.839C35.1938 103.988 34.9045 104.063 34.5731 104.063C34.2325 104.063 33.9221 103.979 33.6421 103.811C33.3668 103.643 33.1498 103.407 32.9911 103.104C32.8325 102.801 32.7531 102.455 32.7531 102.068C32.7531 101.676 32.8325 101.333 32.9911 101.039C33.1498 100.74 33.3668 100.509 33.6421 100.346C33.9221 100.183 34.2325 100.101 34.5731 100.101ZM36.0011 102.075C36.0011 101.786 35.9428 101.534 35.8261 101.319C35.7095 101.104 35.5508 100.941 35.3501 100.829C35.1541 100.712 34.9371 100.654 34.6991 100.654C34.4611 100.654 34.2441 100.71 34.0481 100.822C33.8521 100.934 33.6958 101.097 33.5791 101.312C33.4625 101.527 33.4041 101.779 33.4041 102.068C33.4041 102.362 33.4625 102.619 33.5791 102.838C33.6958 103.053 33.8521 103.218 34.0481 103.335C34.2441 103.447 34.4611 103.503 34.6991 103.503C34.9371 103.503 35.1541 103.447 35.3501 103.335C35.5508 103.218 35.7095 103.053 35.8261 102.838C35.9428 102.619 36.0011 102.364 36.0011 102.075ZM41.1236 100.164V104H40.4866V103.433C40.3653 103.629 40.195 103.783 39.9756 103.895C39.761 104.002 39.523 104.056 39.2616 104.056C38.963 104.056 38.6946 103.995 38.4566 103.874C38.2186 103.748 38.0296 103.561 37.8896 103.314C37.7543 103.067 37.6866 102.766 37.6866 102.411V100.164H38.3166V102.327C38.3166 102.705 38.4123 102.997 38.6036 103.202C38.795 103.403 39.0563 103.503 39.3876 103.503C39.7283 103.503 39.9966 103.398 40.1926 103.188C40.3886 102.978 40.4866 102.672 40.4866 102.271V100.164H41.1236ZM42.8362 98.82V104H42.1992V98.82H42.8362ZM43.6838 102.068C43.6838 101.676 43.7631 101.333 43.9218 101.039C44.0805 100.74 44.2975 100.509 44.5728 100.346C44.8528 100.183 45.1631 100.101 45.5038 100.101C45.8398 100.101 46.1315 100.173 46.3788 100.318C46.6261 100.463 46.8105 100.645 46.9318 100.864V100.164H47.5758V104H46.9318V103.286C46.8058 103.51 46.6168 103.697 46.3648 103.846C46.1175 103.991 45.8281 104.063 45.4968 104.063C45.1561 104.063 44.8481 103.979 44.5728 103.811C44.2975 103.643 44.0805 103.407 43.9218 103.104C43.7631 102.801 43.6838 102.455 43.6838 102.068ZM46.9318 102.075C46.9318 101.786 46.8735 101.534 46.7568 101.319C46.6401 101.104 46.4815 100.941 46.2808 100.829C46.0848 100.712 45.8678 100.654 45.6298 100.654C45.3918 100.654 45.1748 100.71 44.9788 100.822C44.7828 100.934 44.6265 101.097 44.5098 101.312C44.3931 101.527 44.3348 101.779 44.3348 102.068C44.3348 102.362 44.3931 102.619 44.5098 102.838C44.6265 103.053 44.7828 103.218 44.9788 103.335C45.1748 103.447 45.3918 103.503 45.6298 103.503C45.8678 103.503 46.0848 103.447 46.2808 103.335C46.4815 103.218 46.6401 103.053 46.7568 102.838C46.8735 102.619 46.9318 102.364 46.9318 102.075ZM49.2893 100.787C49.4013 100.568 49.5599 100.397 49.7653 100.276C49.9753 100.155 50.2296 100.094 50.5283 100.094V100.752H50.3603C49.6463 100.752 49.2893 101.139 49.2893 101.914V104H48.6523V100.164H49.2893V100.787ZM51.9006 98.82V104H51.2636V98.82H51.9006ZM56.2903 100.164L53.9803 105.806H53.3223L54.0783 103.958L52.5313 100.164H53.2383L54.4423 103.272L55.6323 100.164H56.2903ZM15.868 110.541C15.7467 110.541 15.644 110.499 15.56 110.415C15.476 110.331 15.434 110.228 15.434 110.107C15.434 109.986 15.476 109.883 15.56 109.799C15.644 109.715 15.7467 109.673 15.868 109.673C15.9847 109.673 16.0827 109.715 16.162 109.799C16.246 109.883 16.288 109.986 16.288 110.107C16.288 110.228 16.246 110.331 16.162 110.415C16.0827 110.499 15.9847 110.541 15.868 110.541ZM16.176 111.164V115H15.539V111.164H16.176ZM19.1307 111.094C19.5973 111.094 19.9753 111.236 20.2647 111.521C20.554 111.801 20.6987 112.207 20.6987 112.739V115H20.0687V112.83C20.0687 112.447 19.973 112.156 19.7817 111.955C19.5903 111.75 19.329 111.647 18.9977 111.647C18.6617 111.647 18.3933 111.752 18.1927 111.962C17.9967 112.172 17.8987 112.478 17.8987 112.879V115H17.2617V111.164H17.8987V111.71C18.0247 111.514 18.195 111.362 18.4097 111.255C18.629 111.148 18.8693 111.094 19.1307 111.094ZM23.3002 111.689H22.4952V115H21.8582V111.689H21.3612V111.164H21.8582V110.891C21.8582 110.462 21.9679 110.149 22.1872 109.953C22.4112 109.752 22.7682 109.652 23.2582 109.652V110.184C22.9782 110.184 22.7799 110.24 22.6632 110.352C22.5512 110.459 22.4952 110.639 22.4952 110.891V111.164H23.3002V111.689ZM25.7159 115.063C25.3566 115.063 25.0299 114.981 24.7359 114.818C24.4466 114.655 24.2179 114.424 24.0499 114.125C23.8866 113.822 23.8049 113.472 23.8049 113.075C23.8049 112.683 23.8889 112.338 24.0569 112.039C24.2296 111.736 24.4629 111.505 24.7569 111.346C25.0509 111.183 25.3799 111.101 25.7439 111.101C26.1079 111.101 26.4369 111.183 26.7309 111.346C27.0249 111.505 27.2559 111.733 27.4239 112.032C27.5966 112.331 27.6829 112.678 27.6829 113.075C27.6829 113.472 27.5942 113.822 27.4169 114.125C27.2442 114.424 27.0086 114.655 26.7099 114.818C26.4112 114.981 26.0799 115.063 25.7159 115.063ZM25.7159 114.503C25.9446 114.503 26.1592 114.449 26.3599 114.342C26.5606 114.235 26.7216 114.074 26.8429 113.859C26.9689 113.644 27.0319 113.383 27.0319 113.075C27.0319 112.767 26.9712 112.506 26.8499 112.291C26.7286 112.076 26.5699 111.918 26.3739 111.815C26.1779 111.708 25.9656 111.654 25.7369 111.654C25.5036 111.654 25.2889 111.708 25.0929 111.815C24.9016 111.918 24.7476 112.076 24.6309 112.291C24.5142 112.506 24.4559 112.767 24.4559 113.075C24.4559 113.388 24.5119 113.651 24.6239 113.866C24.7406 114.081 24.8946 114.242 25.0859 114.349C25.2772 114.452 25.4872 114.503 25.7159 114.503ZM29.1574 111.787C29.2694 111.568 29.4281 111.397 29.6334 111.276C29.8434 111.155 30.0978 111.094 30.3964 111.094V111.752H30.2284C29.5144 111.752 29.1574 112.139 29.1574 112.914V115H28.5204V111.164H29.1574V111.787ZM35.7448 111.094C36.0434 111.094 36.3094 111.157 36.5428 111.283C36.7761 111.404 36.9604 111.589 37.0958 111.836C37.2311 112.083 37.2988 112.384 37.2988 112.739V115H36.6688V112.83C36.6688 112.447 36.5731 112.156 36.3818 111.955C36.1951 111.75 35.9408 111.647 35.6188 111.647C35.2874 111.647 35.0238 111.754 34.8278 111.969C34.6318 112.179 34.5338 112.485 34.5338 112.886V115H33.9038V112.83C33.9038 112.447 33.8081 112.156 33.6168 111.955C33.4301 111.75 33.1758 111.647 32.8538 111.647C32.5224 111.647 32.2588 111.754 32.0628 111.969C31.8668 112.179 31.7688 112.485 31.7688 112.886V115H31.1318V111.164H31.7688V111.717C31.8948 111.516 32.0628 111.362 32.2728 111.255C32.4874 111.148 32.7231 111.094 32.9798 111.094C33.3018 111.094 33.5864 111.166 33.8338 111.311C34.0811 111.456 34.2654 111.668 34.3868 111.948C34.4941 111.677 34.6714 111.467 34.9188 111.318C35.1661 111.169 35.4414 111.094 35.7448 111.094ZM41.8437 112.935C41.8437 113.056 41.8367 113.185 41.8227 113.32H38.7567C38.78 113.698 38.9084 113.994 39.1417 114.209C39.3797 114.419 39.6667 114.524 40.0027 114.524C40.278 114.524 40.5067 114.461 40.6887 114.335C40.8754 114.204 41.006 114.032 41.0807 113.817H41.7667C41.664 114.186 41.4587 114.487 41.1507 114.72C40.8427 114.949 40.46 115.063 40.0027 115.063C39.6387 115.063 39.312 114.981 39.0227 114.818C38.738 114.655 38.514 114.424 38.3507 114.125C38.1874 113.822 38.1057 113.472 38.1057 113.075C38.1057 112.678 38.185 112.331 38.3437 112.032C38.5024 111.733 38.724 111.505 39.0087 111.346C39.298 111.183 39.6294 111.101 40.0027 111.101C40.3667 111.101 40.6887 111.18 40.9687 111.339C41.2487 111.498 41.4634 111.717 41.6127 111.997C41.7667 112.272 41.8437 112.585 41.8437 112.935ZM41.1857 112.802C41.1857 112.559 41.132 112.352 41.0247 112.179C40.9174 112.002 40.7704 111.869 40.5837 111.78C40.4017 111.687 40.1987 111.64 39.9747 111.64C39.6527 111.64 39.3774 111.743 39.1487 111.948C38.9247 112.153 38.7964 112.438 38.7637 112.802H41.1857ZM42.4465 113.068C42.4465 112.676 42.5258 112.333 42.6845 112.039C42.8432 111.74 43.0602 111.509 43.3355 111.346C43.6155 111.183 43.9282 111.101 44.2735 111.101C44.5722 111.101 44.8498 111.171 45.1065 111.311C45.3632 111.446 45.5592 111.626 45.6945 111.85V109.82H46.3385V115H45.6945V114.279C45.5685 114.508 45.3818 114.697 45.1345 114.846C44.8872 114.991 44.5978 115.063 44.2665 115.063C43.9258 115.063 43.6155 114.979 43.3355 114.811C43.0602 114.643 42.8432 114.407 42.6845 114.104C42.5258 113.801 42.4465 113.455 42.4465 113.068ZM45.6945 113.075C45.6945 112.786 45.6362 112.534 45.5195 112.319C45.4028 112.104 45.2442 111.941 45.0435 111.829C44.8475 111.712 44.6305 111.654 44.3925 111.654C44.1545 111.654 43.9375 111.71 43.7415 111.822C43.5455 111.934 43.3892 112.097 43.2725 112.312C43.1558 112.527 43.0975 112.779 43.0975 113.068C43.0975 113.362 43.1558 113.619 43.2725 113.838C43.3892 114.053 43.5455 114.218 43.7415 114.335C43.9375 114.447 44.1545 114.503 44.3925 114.503C44.6305 114.503 44.8475 114.447 45.0435 114.335C45.2442 114.218 45.4028 114.053 45.5195 113.838C45.6362 113.619 45.6945 113.364 45.6945 113.075ZM49.0432 113.068C49.0432 112.676 49.1225 112.333 49.2812 112.039C49.4399 111.74 49.6569 111.509 49.9322 111.346C50.2122 111.183 50.5225 111.101 50.8632 111.101C51.1992 111.101 51.4909 111.173 51.7382 111.318C51.9855 111.463 52.1699 111.645 52.2912 111.864V111.164H52.9352V115H52.2912V114.286C52.1652 114.51 51.9762 114.697 51.7242 114.846C51.4769 114.991 51.1875 115.063 50.8562 115.063C50.5155 115.063 50.2075 114.979 49.9322 114.811C49.6569 114.643 49.4399 114.407 49.2812 114.104C49.1225 113.801 49.0432 113.455 49.0432 113.068ZM52.2912 113.075C52.2912 112.786 52.2329 112.534 52.1162 112.319C51.9995 112.104 51.8409 111.941 51.6402 111.829C51.4442 111.712 51.2272 111.654 50.9892 111.654C50.7512 111.654 50.5342 111.71 50.3382 111.822C50.1422 111.934 49.9859 112.097 49.8692 112.312C49.7525 112.527 49.6942 112.779 49.6942 113.068C49.6942 113.362 49.7525 113.619 49.8692 113.838C49.9859 114.053 50.1422 114.218 50.3382 114.335C50.5342 114.447 50.7512 114.503 50.9892 114.503C51.2272 114.503 51.4442 114.447 51.6402 114.335C51.8409 114.218 51.9995 114.053 52.1162 113.838C52.2329 113.619 52.2912 113.364 52.2912 113.075ZM54.6487 111.878C54.7793 111.649 54.9707 111.463 55.2227 111.318C55.4747 111.173 55.7617 111.101 56.0837 111.101C56.429 111.101 56.7393 111.183 57.0147 111.346C57.29 111.509 57.507 111.74 57.6657 112.039C57.8243 112.333 57.9037 112.676 57.9037 113.068C57.9037 113.455 57.8243 113.801 57.6657 114.104C57.507 114.407 57.2877 114.643 57.0077 114.811C56.7323 114.979 56.4243 115.063 56.0837 115.063C55.7523 115.063 55.4607 114.991 55.2087 114.846C54.9613 114.701 54.7747 114.517 54.6487 114.293V115H54.0117V109.82H54.6487V111.878ZM57.2527 113.068C57.2527 112.779 57.1943 112.527 57.0777 112.312C56.961 112.097 56.8023 111.934 56.6017 111.822C56.4057 111.71 56.1887 111.654 55.9507 111.654C55.7173 111.654 55.5003 111.712 55.2997 111.829C55.1037 111.941 54.945 112.107 54.8237 112.326C54.707 112.541 54.6487 112.79 54.6487 113.075C54.6487 113.364 54.707 113.619 54.8237 113.838C54.945 114.053 55.1037 114.218 55.2997 114.335C55.5003 114.447 55.7173 114.503 55.9507 114.503C56.1887 114.503 56.4057 114.447 56.6017 114.335C56.8023 114.218 56.961 114.053 57.0777 113.838C57.1943 113.619 57.2527 113.362 57.2527 113.068ZM60.4151 115.063C60.0558 115.063 59.7291 114.981 59.4351 114.818C59.1458 114.655 58.9171 114.424 58.7491 114.125C58.5858 113.822 58.5041 113.472 58.5041 113.075C58.5041 112.683 58.5881 112.338 58.7561 112.039C58.9288 111.736 59.1621 111.505 59.4561 111.346C59.7501 111.183 60.0791 111.101 60.4431 111.101C60.8071 111.101 61.1361 111.183 61.4301 111.346C61.7241 111.505 61.9551 111.733 62.1231 112.032C62.2958 112.331 62.3821 112.678 62.3821 113.075C62.3821 113.472 62.2935 113.822 62.1161 114.125C61.9435 114.424 61.7078 114.655 61.4091 114.818C61.1105 114.981 60.7791 115.063 60.4151 115.063ZM60.4151 114.503C60.6438 114.503 60.8585 114.449 61.0591 114.342C61.2598 114.235 61.4208 114.074 61.5421 113.859C61.6681 113.644 61.7311 113.383 61.7311 113.075C61.7311 112.767 61.6705 112.506 61.5491 112.291C61.4278 112.076 61.2691 111.918 61.0731 111.815C60.8771 111.708 60.6648 111.654 60.4361 111.654C60.2028 111.654 59.9881 111.708 59.7921 111.815C59.6008 111.918 59.4468 112.076 59.3301 112.291C59.2135 112.506 59.1551 112.767 59.1551 113.075C59.1551 113.388 59.2111 113.651 59.3231 113.866C59.4398 114.081 59.5938 114.242 59.7851 114.349C59.9765 114.452 60.1865 114.503 60.4151 114.503ZM66.6217 111.164V115H65.9847V114.433C65.8633 114.629 65.693 114.783 65.4737 114.895C65.259 115.002 65.021 115.056 64.7597 115.056C64.461 115.056 64.1927 114.995 63.9547 114.874C63.7167 114.748 63.5277 114.561 63.3877 114.314C63.2523 114.067 63.1847 113.766 63.1847 113.411V111.164H63.8147V113.327C63.8147 113.705 63.9103 113.997 64.1017 114.202C64.293 114.403 64.5543 114.503 64.8857 114.503C65.2263 114.503 65.4947 114.398 65.6907 114.188C65.8867 113.978 65.9847 113.672 65.9847 113.271V111.164H66.6217ZM68.4742 111.689V113.95C68.4742 114.137 68.5139 114.27 68.5932 114.349C68.6725 114.424 68.8102 114.461 69.0062 114.461H69.4752V115H68.9012C68.5465 115 68.2805 114.918 68.1032 114.755C67.9259 114.592 67.8372 114.323 67.8372 113.95V111.689H67.3402V111.164H67.8372V110.198H68.4742V111.164H69.4752V111.689H68.4742Z" fill="#090136"/>
<path d="M16.176 65.82V71H15.539V65.82H16.176ZM17.0237 69.068C17.0237 68.676 17.103 68.333 17.2617 68.039C17.4203 67.7403 17.6373 67.5093 17.9127 67.346C18.1927 67.1827 18.503 67.101 18.8437 67.101C19.1797 67.101 19.4713 67.1733 19.7187 67.318C19.966 67.4627 20.1503 67.6447 20.2717 67.864V67.164H20.9157V71H20.2717V70.286C20.1457 70.51 19.9567 70.6967 19.7047 70.846C19.4573 70.9907 19.168 71.063 18.8367 71.063C18.496 71.063 18.188 70.979 17.9127 70.811C17.6373 70.643 17.4203 70.4073 17.2617 70.104C17.103 69.8007 17.0237 69.4553 17.0237 69.068ZM20.2717 69.075C20.2717 68.7857 20.2133 68.5337 20.0967 68.319C19.98 68.1043 19.8213 67.941 19.6207 67.829C19.4247 67.7123 19.2077 67.654 18.9697 67.654C18.7317 67.654 18.5147 67.71 18.3187 67.822C18.1227 67.934 17.9663 68.0973 17.8497 68.312C17.733 68.5267 17.6747 68.7787 17.6747 69.068C17.6747 69.362 17.733 69.6187 17.8497 69.838C17.9663 70.0527 18.1227 70.2183 18.3187 70.335C18.5147 70.447 18.7317 70.503 18.9697 70.503C19.2077 70.503 19.4247 70.447 19.6207 70.335C19.8213 70.2183 19.98 70.0527 20.0967 69.838C20.2133 69.6187 20.2717 69.3643 20.2717 69.075ZM25.3941 67.164V71H24.7571V70.433C24.6358 70.629 24.4655 70.783 24.2461 70.895C24.0315 71.0023 23.7935 71.056 23.5321 71.056C23.2335 71.056 22.9651 70.9953 22.7271 70.874C22.4891 70.748 22.3001 70.5613 22.1601 70.314C22.0248 70.0667 21.9571 69.7657 21.9571 69.411V67.164H22.5871V69.327C22.5871 69.705 22.6828 69.9967 22.8741 70.202C23.0655 70.4027 23.3268 70.503 23.6581 70.503C23.9988 70.503 24.2671 70.398 24.4631 70.188C24.6591 69.978 24.7571 69.6723 24.7571 69.271V67.164H25.3941ZM28.3387 67.094C28.8053 67.094 29.1833 67.2363 29.4727 67.521C29.762 67.801 29.9067 68.207 29.9067 68.739V71H29.2767V68.83C29.2767 68.4473 29.181 68.1557 28.9897 67.955C28.7983 67.7497 28.537 67.647 28.2057 67.647C27.8697 67.647 27.6013 67.752 27.4007 67.962C27.2047 68.172 27.1067 68.4777 27.1067 68.879V71H26.4697V67.164H27.1067V67.71C27.2327 67.514 27.403 67.3623 27.6177 67.255C27.837 67.1477 28.0773 67.094 28.3387 67.094ZM30.7092 69.075C30.7092 68.6783 30.7885 68.333 30.9472 68.039C31.1059 67.7403 31.3252 67.5093 31.6052 67.346C31.8899 67.1827 32.2142 67.101 32.5782 67.101C33.0495 67.101 33.4369 67.2153 33.7402 67.444C34.0482 67.6727 34.2512 67.99 34.3492 68.396H33.6632C33.5979 68.1627 33.4695 67.9783 33.2782 67.843C33.0915 67.7077 32.8582 67.64 32.5782 67.64C32.2142 67.64 31.9202 67.766 31.6962 68.018C31.4722 68.2653 31.3602 68.6177 31.3602 69.075C31.3602 69.537 31.4722 69.894 31.6962 70.146C31.9202 70.398 32.2142 70.524 32.5782 70.524C32.8582 70.524 33.0915 70.4587 33.2782 70.328C33.4649 70.1973 33.5932 70.0107 33.6632 69.768H34.3492C34.2465 70.16 34.0412 70.475 33.7332 70.713C33.4252 70.9463 33.0402 71.063 32.5782 71.063C32.2142 71.063 31.8899 70.9813 31.6052 70.818C31.3252 70.6547 31.1059 70.4237 30.9472 70.125C30.7885 69.8263 30.7092 69.4763 30.7092 69.075ZM37.1032 67.094C37.3925 67.094 37.6538 67.157 37.8872 67.283C38.1205 67.4043 38.3025 67.5887 38.4332 67.836C38.5685 68.0833 38.6362 68.3843 38.6362 68.739V71H38.0062V68.83C38.0062 68.4473 37.9105 68.1557 37.7192 67.955C37.5278 67.7497 37.2665 67.647 36.9352 67.647C36.5992 67.647 36.3308 67.752 36.1302 67.962C35.9342 68.172 35.8362 68.4777 35.8362 68.879V71H35.1992V65.82H35.8362V67.71C35.9622 67.514 36.1348 67.3623 36.3542 67.255C36.5782 67.1477 36.8278 67.094 37.1032 67.094ZM43.1767 68.935C43.1767 69.0563 43.1697 69.1847 43.1557 69.32H40.0897C40.113 69.698 40.2414 69.9943 40.4747 70.209C40.7127 70.419 40.9997 70.524 41.3357 70.524C41.611 70.524 41.8397 70.461 42.0217 70.335C42.2084 70.2043 42.339 70.0317 42.4137 69.817H43.0997C42.997 70.1857 42.7917 70.4867 42.4837 70.72C42.1757 70.9487 41.793 71.063 41.3357 71.063C40.9717 71.063 40.645 70.9813 40.3557 70.818C40.071 70.6547 39.847 70.4237 39.6837 70.125C39.5204 69.8217 39.4387 69.4717 39.4387 69.075C39.4387 68.6783 39.518 68.3307 39.6767 68.032C39.8354 67.7333 40.057 67.5047 40.3417 67.346C40.631 67.1827 40.9624 67.101 41.3357 67.101C41.6997 67.101 42.0217 67.1803 42.3017 67.339C42.5817 67.4977 42.7964 67.717 42.9457 67.997C43.0997 68.2723 43.1767 68.585 43.1767 68.935ZM42.5187 68.802C42.5187 68.5593 42.465 68.3517 42.3577 68.179C42.2504 68.0017 42.1034 67.8687 41.9167 67.78C41.7347 67.6867 41.5317 67.64 41.3077 67.64C40.9857 67.64 40.7104 67.7427 40.4817 67.948C40.2577 68.1533 40.1294 68.438 40.0967 68.802H42.5187ZM45.3755 71.063C45.0815 71.063 44.8178 71.014 44.5845 70.916C44.3512 70.8133 44.1668 70.6733 44.0315 70.496C43.8962 70.314 43.8215 70.1063 43.8075 69.873H44.4655C44.4842 70.0643 44.5728 70.2207 44.7315 70.342C44.8948 70.4633 45.1072 70.524 45.3685 70.524C45.6112 70.524 45.8025 70.4703 45.9425 70.363C46.0825 70.2557 46.1525 70.1203 46.1525 69.957C46.1525 69.789 46.0778 69.6653 45.9285 69.586C45.7792 69.502 45.5482 69.4203 45.2355 69.341C44.9508 69.2663 44.7175 69.1917 44.5355 69.117C44.3582 69.0377 44.2042 68.9233 44.0735 68.774C43.9475 68.62 43.8845 68.4193 43.8845 68.172C43.8845 67.976 43.9428 67.7963 44.0595 67.633C44.1762 67.4697 44.3418 67.3413 44.5565 67.248C44.7712 67.15 45.0162 67.101 45.2915 67.101C45.7162 67.101 46.0592 67.2083 46.3205 67.423C46.5818 67.6377 46.7218 67.9317 46.7405 68.305H46.1035C46.0895 68.1043 46.0078 67.9433 45.8585 67.822C45.7138 67.7007 45.5178 67.64 45.2705 67.64C45.0418 67.64 44.8598 67.689 44.7245 67.787C44.5892 67.885 44.5215 68.0133 44.5215 68.172C44.5215 68.298 44.5612 68.403 44.6405 68.487C44.7245 68.5663 44.8272 68.6317 44.9485 68.683C45.0745 68.7297 45.2472 68.7833 45.4665 68.844C45.7418 68.9187 45.9658 68.9933 46.1385 69.068C46.3112 69.138 46.4582 69.2453 46.5795 69.39C46.7055 69.5347 46.7708 69.7237 46.7755 69.957C46.7755 70.167 46.7172 70.356 46.6005 70.524C46.4838 70.692 46.3182 70.825 46.1035 70.923C45.8935 71.0163 45.6508 71.063 45.3755 71.063ZM20.152 122.094C20.4507 122.094 20.7167 122.157 20.95 122.283C21.1833 122.404 21.3677 122.589 21.503 122.836C21.6383 123.083 21.706 123.384 21.706 123.739V126H21.076V123.83C21.076 123.447 20.9803 123.156 20.789 122.955C20.6023 122.75 20.348 122.647 20.026 122.647C19.6947 122.647 19.431 122.754 19.235 122.969C19.039 123.179 18.941 123.485 18.941 123.886V126H18.311V123.83C18.311 123.447 18.2153 123.156 18.024 122.955C17.8373 122.75 17.583 122.647 17.261 122.647C16.9297 122.647 16.666 122.754 16.47 122.969C16.274 123.179 16.176 123.485 16.176 123.886V126H15.539V122.164H16.176V122.717C16.302 122.516 16.47 122.362 16.68 122.255C16.8947 122.148 17.1303 122.094 17.387 122.094C17.709 122.094 17.9937 122.166 18.241 122.311C18.4883 122.456 18.6727 122.668 18.794 122.948C18.9013 122.677 19.0787 122.467 19.326 122.318C19.5733 122.169 19.8487 122.094 20.152 122.094ZM22.5129 124.068C22.5129 123.676 22.5922 123.333 22.7509 123.039C22.9096 122.74 23.1266 122.509 23.4019 122.346C23.6819 122.183 23.9922 122.101 24.3329 122.101C24.6689 122.101 24.9606 122.173 25.2079 122.318C25.4552 122.463 25.6396 122.645 25.7609 122.864V122.164H26.4049V126H25.7609V125.286C25.6349 125.51 25.4459 125.697 25.1939 125.846C24.9466 125.991 24.6572 126.063 24.3259 126.063C23.9852 126.063 23.6772 125.979 23.4019 125.811C23.1266 125.643 22.9096 125.407 22.7509 125.104C22.5922 124.801 22.5129 124.455 22.5129 124.068ZM25.7609 124.075C25.7609 123.786 25.7026 123.534 25.5859 123.319C25.4692 123.104 25.3106 122.941 25.1099 122.829C24.9139 122.712 24.6969 122.654 24.4589 122.654C24.2209 122.654 24.0039 122.71 23.8079 122.822C23.6119 122.934 23.4556 123.097 23.3389 123.312C23.2222 123.527 23.1639 123.779 23.1639 124.068C23.1639 124.362 23.2222 124.619 23.3389 124.838C23.4556 125.053 23.6119 125.218 23.8079 125.335C24.0039 125.447 24.2209 125.503 24.4589 125.503C24.6969 125.503 24.9139 125.447 25.1099 125.335C25.3106 125.218 25.4692 125.053 25.5859 124.838C25.7026 124.619 25.7609 124.364 25.7609 124.075ZM28.1184 122.787C28.2304 122.568 28.389 122.397 28.5944 122.276C28.8044 122.155 29.0587 122.094 29.3574 122.094V122.752H29.1894C28.4754 122.752 28.1184 123.139 28.1184 123.914V126H27.4814V122.164H28.1184V122.787ZM32.2347 126L30.7297 124.306V126H30.0927V120.82H30.7297V123.865L32.2067 122.164H33.0957L31.2897 124.075L33.1027 126H32.2347ZM37.1953 123.935C37.1953 124.056 37.1883 124.185 37.1743 124.32H34.1083C34.1316 124.698 34.2599 124.994 34.4933 125.209C34.7313 125.419 35.0183 125.524 35.3543 125.524C35.6296 125.524 35.8583 125.461 36.0403 125.335C36.2269 125.204 36.3576 125.032 36.4323 124.817H37.1183C37.0156 125.186 36.8103 125.487 36.5023 125.72C36.1943 125.949 35.8116 126.063 35.3543 126.063C34.9903 126.063 34.6636 125.981 34.3743 125.818C34.0896 125.655 33.8656 125.424 33.7023 125.125C33.5389 124.822 33.4573 124.472 33.4573 124.075C33.4573 123.678 33.5366 123.331 33.6953 123.032C33.8539 122.733 34.0756 122.505 34.3603 122.346C34.6496 122.183 34.9809 122.101 35.3543 122.101C35.7183 122.101 36.0403 122.18 36.3203 122.339C36.6003 122.498 36.8149 122.717 36.9643 122.997C37.1183 123.272 37.1953 123.585 37.1953 123.935ZM36.5373 123.802C36.5373 123.559 36.4836 123.352 36.3763 123.179C36.2689 123.002 36.1219 122.869 35.9353 122.78C35.7533 122.687 35.5503 122.64 35.3263 122.64C35.0043 122.64 34.7289 122.743 34.5003 122.948C34.2763 123.153 34.1479 123.438 34.1153 123.802H36.5373ZM38.8131 122.689V124.95C38.8131 125.137 38.8527 125.27 38.9321 125.349C39.0114 125.424 39.1491 125.461 39.3451 125.461H39.8141V126H39.2401C38.8854 126 38.6194 125.918 38.4421 125.755C38.2647 125.592 38.1761 125.323 38.1761 124.95V122.689H37.6791V122.164H38.1761V121.198H38.8131V122.164H39.8141V122.689H38.8131ZM44.3211 122.094C44.7878 122.094 45.1658 122.236 45.4551 122.521C45.7444 122.801 45.8891 123.207 45.8891 123.739V126H45.2591V123.83C45.2591 123.447 45.1634 123.156 44.9721 122.955C44.7808 122.75 44.5194 122.647 44.1881 122.647C43.8521 122.647 43.5838 122.752 43.3831 122.962C43.1871 123.172 43.0891 123.478 43.0891 123.879V126H42.4521V122.164H43.0891V122.71C43.2151 122.514 43.3854 122.362 43.6001 122.255C43.8194 122.148 44.0598 122.094 44.3211 122.094ZM50.4296 123.935C50.4296 124.056 50.4226 124.185 50.4086 124.32H47.3426C47.366 124.698 47.4943 124.994 47.7276 125.209C47.9656 125.419 48.2526 125.524 48.5886 125.524C48.864 125.524 49.0926 125.461 49.2746 125.335C49.4613 125.204 49.592 125.032 49.6666 124.817H50.3526C50.25 125.186 50.0446 125.487 49.7366 125.72C49.4286 125.949 49.046 126.063 48.5886 126.063C48.2246 126.063 47.898 125.981 47.6086 125.818C47.324 125.655 47.1 125.424 46.9366 125.125C46.7733 124.822 46.6916 124.472 46.6916 124.075C46.6916 123.678 46.771 123.331 46.9296 123.032C47.0883 122.733 47.31 122.505 47.5946 122.346C47.884 122.183 48.2153 122.101 48.5886 122.101C48.9526 122.101 49.2746 122.18 49.5546 122.339C49.8346 122.498 50.0493 122.717 50.1986 122.997C50.3526 123.272 50.4296 123.585 50.4296 123.935ZM49.7716 123.802C49.7716 123.559 49.718 123.352 49.6106 123.179C49.5033 123.002 49.3563 122.869 49.1696 122.78C48.9876 122.687 48.7846 122.64 48.5606 122.64C48.2386 122.64 47.9633 122.743 47.7346 122.948C47.5106 123.153 47.3823 123.438 47.3496 123.802H49.7716ZM56.3804 122.164L55.1834 126H54.5254L53.6014 122.955L52.6774 126H52.0194L50.8154 122.164H51.4664L52.3484 125.384L53.3004 122.164H53.9514L54.8824 125.391L55.7504 122.164H56.3804ZM58.3706 126.063C58.0766 126.063 57.813 126.014 57.5796 125.916C57.3463 125.813 57.162 125.673 57.0266 125.496C56.8913 125.314 56.8166 125.106 56.8026 124.873H57.4606C57.4793 125.064 57.568 125.221 57.7266 125.342C57.89 125.463 58.1023 125.524 58.3636 125.524C58.6063 125.524 58.7976 125.47 58.9376 125.363C59.0776 125.256 59.1476 125.12 59.1476 124.957C59.1476 124.789 59.073 124.665 58.9236 124.586C58.7743 124.502 58.5433 124.42 58.2306 124.341C57.946 124.266 57.7126 124.192 57.5306 124.117C57.3533 124.038 57.1993 123.923 57.0686 123.774C56.9426 123.62 56.8796 123.419 56.8796 123.172C56.8796 122.976 56.938 122.796 57.0546 122.633C57.1713 122.47 57.337 122.341 57.5516 122.248C57.7663 122.15 58.0113 122.101 58.2866 122.101C58.7113 122.101 59.0543 122.208 59.3156 122.423C59.577 122.638 59.717 122.932 59.7356 123.305H59.0986C59.0846 123.104 59.003 122.943 58.8536 122.822C58.709 122.701 58.513 122.64 58.2656 122.64C58.037 122.64 57.855 122.689 57.7196 122.787C57.5843 122.885 57.5166 123.013 57.5166 123.172C57.5166 123.298 57.5563 123.403 57.6356 123.487C57.7196 123.566 57.8223 123.632 57.9436 123.683C58.0696 123.73 58.2423 123.783 58.4616 123.844C58.737 123.919 58.961 123.993 59.1336 124.068C59.3063 124.138 59.4533 124.245 59.5746 124.39C59.7006 124.535 59.766 124.724 59.7706 124.957C59.7706 125.167 59.7123 125.356 59.5956 125.524C59.479 125.692 59.3133 125.825 59.0986 125.923C58.8886 126.016 58.646 126.063 58.3706 126.063Z" fill="white"/>
<circle cx="11" cy="58" r="1" fill="#090136"/>
<circle cx="11" cy="80" r="1" fill="#090136"/>
<circle cx="11" cy="101" r="1" fill="#090136"/>
</svg>
